#N canvas 1603 86 954 449 10;
#X obj 11 182 hradio 50 1 0 16 playseq_to_ONnOFF playseq_step_(0-15)
PLAY_Sequencer 0 -11 0 20 -203904 -1 -159808 6;
#X obj 11 106 hradio 50 1 0 16 empty toWriteStep WRITE_Sequencer 0
-11 0 20 -262130 -1 -83269 0;
#N canvas 1847 596 1162 450 sequencerStepRouting 0;
#X obj -1 13 inlet;
#X obj 116 133 send chord_step__1;
#X obj 106 154 send chord_step__2;
#X obj 90 178 send chord_step__3;
#X obj 74 202 send chord_step__4;
#X obj 67 229 send chord_step__5;
#X obj 56 251 send chord_step__6;
#X obj 44 271 send chord_step__7;
#X obj 28 293 send chord_step__8;
#X obj 368 99 send chord_step__9;
#X obj 360 119 send chord_step__10;
#X obj 354 139 send chord_step__11;
#X obj 326 161 send chord_step__12;
#X obj 295 182 send chord_step__13;
#X obj 274 203 send chord_step__14;
#X obj 252 225 send chord_step__15;
#X obj 237 247 send chord_step__16;
#X obj -8 39 route 0 1 2 3 4 5 6 7 8 9 10 11 12 13 14 15;
#X connect 0 0 17 0;
#X connect 17 0 1 0;
#X connect 17 1 2 0;
#X connect 17 2 3 0;
#X connect 17 3 4 0;
#X connect 17 4 5 0;
#X connect 17 5 6 0;
#X connect 17 6 7 0;
#X connect 17 7 8 0;
#X connect 17 8 9 0;
#X connect 17 9 10 0;
#X connect 17 10 11 0;
#X connect 17 11 12 0;
#X connect 17 12 13 0;
#X connect 17 13 14 0;
#X connect 17 14 15 0;
#X connect 17 15 16 0;
#X restore 2 42 pd sequencerStepRouting;
#N canvas 1874 825 954 205 aLottaCounters 0;
#N canvas 2094 825 329 210 count-note-ON 0;
#X obj 2 52 bng 15 250 50 0 empty empty add_1_to_noteON_counter 17
7 0 10 -262144 -1 -1;
#X obj 140 125 + 1;
#X obj 184 52 bng 15 250 50 0 empty empty Reset_noteON_counter 17 7
0 10 -262144 -1 -1;
#X floatatom 121 99 5 0 0 0 - - -, f 5;
#X floatatom 94 160 5 0 0 0 - - ONcount, f 5;
#X msg 94 75 1;
#X obj 94 125 int 1;
#X obj 184 25 inlet;
#X obj 2 24 inlet;
#X obj 48 171 outlet;
#X text 4 4 from ch3 note-ON velocity;
#X text 178 2 from "select 60";
#X text 161 90 reset value;
#X text 131 160 number of noteONs;
#X connect 0 0 6 0;
#X connect 1 0 6 1;
#X connect 2 0 3 0;
#X connect 3 0 6 1;
#X connect 5 0 6 0;
#X connect 6 0 4 0;
#X connect 6 0 1 0;
#X connect 6 0 9 0;
#X connect 7 0 2 0;
#X connect 8 0 0 0;
#X restore 81 59 pd count-note-ON;
#N canvas 1693 638 322 203 count-note-OFF 0;
#X obj 195 23 inlet;
#X obj 2 46 bng 15 250 50 0 empty empty Note_OFF_counter 17 7 0 10
-262144 -1 -1;
#X obj 151 113 + 1;
#X floatatom 132 91 5 0 0 0 - - -, f 5;
#X floatatom 105 151 5 0 0 0 - - OFFcount, f 5;
#X msg 105 75 1;
#X obj 105 113 int 1;
#X obj 2 25 inlet;
#X obj 195 48 bng 15 250 50 0 empty empty Reset_OFF_counter 17 7 0
10 -262144 -1 -1;
#X obj 28 144 outlet;
#X text 4 2 from "select 0";
#X text 160 3 from "select 60";
#X text 143 152 number of noteOFFs;
#X connect 0 0 8 0;
#X connect 1 0 6 0;
#X connect 2 0 6 1;
#X connect 3 0 6 1;
#X connect 5 0 6 0;
#X connect 6 0 4 0;
#X connect 6 0 2 0;
#X connect 6 0 9 0;
#X connect 7 0 1 0;
#X connect 8 0 3 0;
#X restore 206 58 pd count-note-OFF;
#N canvas 988 374 509 281 send-position-&-MIDInote 0;
#X obj 183 47 -;
#X floatatom 158 123 5 0 0 1 left_in=ON_right=OFF - -, f 5;
#X obj 115 76 int;
#X obj 38 161 outlet;
#X obj 13 22 inlet;
#X obj 56 117 pack 0 0;
#X text -1 2 MIDI note;
#X obj 173 21 inlet;
#X obj 236 21 inlet;
#X text 160 1 count-ON;
#X text 222 0 count-OFF;
#X obj 13 60 int;
#X obj 14 229 delay 50 1 msec;
#X obj 113 159 unpack;
#X floatatom 113 182 5 0 0 0 - - -, f 5;
#X floatatom 152 180 5 0 0 0 - - -, f 5;
#X floatatom 25 99 5 0 0 0 - - -, f 5;
#X obj 9 119 bng 15 250 50 0 empty empty empty 17 7 0 10 -262144 -1
-1;
#X connect 0 0 2 1;
#X connect 2 0 5 0;
#X connect 2 0 1 0;
#X connect 4 0 11 0;
#X connect 5 0 3 0;
#X connect 5 0 13 0;
#X connect 7 0 0 0;
#X connect 8 0 0 1;
#X connect 11 0 5 1;
#X connect 11 0 16 0;
#X connect 11 0 17 0;
#X connect 12 0 2 0;
#X connect 13 0 14 0;
#X connect 13 1 15 0;
#X connect 17 0 12 0;
#X restore 2 107 pd send-position-&-MIDInote;
#X obj 128 125 unpack;
#X floatatom 120 143 5 0 0 0 - - -, f 5;
#X floatatom 159 143 5 0 0 0 - - -, f 5;
#X floatatom 2 14 5 0 0 2 MIDI_note MIDI_note-to-chord -, f 5;
#X obj 2 142 outlet;
#X obj 321 38 bng 15 250 50 0 empty start_chord_entry_mode start_chord_entry_mode__(move_WRITE_head)
17 7 0 10 -262144 -1 -1;
#X obj 176 12 bng 15 250 50 0 empty reset_ON_v_OFF reset_ON/OFF 17
7 0 10 -262144 -1 -1;
#X obj 81 12 bng 15 250 50 0 empty noteON-Count noteON-Count 17 7 0
10 -262144 -1 -1;
#X obj 295 13 bng 15 250 50 0 empty noteOFF-count noteOFF-count 17
7 0 10 -262144 -1 -1;
#N canvas 1619 675 488 385 mv-WRITE-head 0;
#X obj 63 155 bng 15 50 10 0 switch_entry_mode_(0/1) empty to:midiIn/chord...
17 7 0 10 -262144 -1 -1;
#X floatatom 230 214 5 0 0 0 - - -, f 5;
#X obj 257 166 + 1;
#X obj 63 131 select 0;
#X obj 63 31 -;
#X floatatom 63 80 5 0 0 3 - - -, f 5;
#X obj 10 13 inlet;
#X obj 100 13 inlet;
#X obj 230 239 mod 16;
#X floatatom 234 80 5 0 0 0 - - -, f 5;
#X obj 234 63 bng 15 250 50 0 empty empty empty 17 7 0 10 -262144 -1
-1;
#X obj 193 7 inlet;
#X obj 193 27 bng 15 250 50 0 empty empty from_chord/duration_switch
17 7 0 10 -262144 -1 -1;
#X obj 338 49 receive NumStepsForward;
#X floatatom 257 191 5 0 0 0 - - -, f 5;
#X obj 230 166 int;
#X floatatom 338 120 5 0 0 3 stepNum_for_nxt_Entry - -, f 5;
#X floatatom 100 31 5 0 0 3 count-ON - -, f 5;
#X floatatom 10 31 5 0 0 3 count-OFF - -, f 5;
#X floatatom 230 264 5 0 0 1 toWriteStep - toWriteStep, f 5;
#X obj 338 99 + 1;
#X floatatom 338 70 5 0 0 1 (duration-patches) - -, f 5;
#X connect 1 0 8 0;
#X connect 2 0 14 0;
#X connect 2 0 15 1;
#X connect 3 0 0 0;
#X connect 4 0 5 0;
#X connect 5 0 3 0;
#X connect 6 0 4 0;
#X connect 6 0 18 0;
#X connect 7 0 4 1;
#X connect 7 0 17 0;
#X connect 8 0 19 0;
#X connect 9 0 15 0;
#X connect 10 0 9 0;
#X connect 11 0 12 0;
#X connect 12 0 15 0;
#X connect 13 0 21 0;
#X connect 15 0 1 0;
#X connect 15 0 2 0;
#X connect 16 0 15 1;
#X connect 20 0 16 0;
#X connect 21 0 20 0;
#X restore 228 108 pd mv-WRITE-head;
#X connect 0 0 2 1;
#X connect 0 0 12 1;
#X connect 1 0 2 2;
#X connect 1 0 12 0;
#X connect 2 0 3 0;
#X connect 2 0 7 0;
#X connect 3 0 4 0;
#X connect 3 1 5 0;
#X connect 6 0 2 0;
#X connect 8 0 12 2;
#X connect 9 0 0 1;
#X connect 9 0 1 1;
#X connect 10 0 0 0;
#X connect 11 0 1 0;
#X restore 2 2 pd aLottaCounters;
#X floatatom 447 33 5 0 0 1 0=chord_enter__1=duration_entry Current_Entry_Mode
-, f 5;
#X obj 156 33 bng 15 250 50 0 reset_ON_v_OFF empty reset_ON/OFF 17
7 0 10 -262144 -1 -1;
#X floatatom 214 83 5 0 0 0 - noteEntryDisplay1 -, f 5;
#X floatatom 251 83 5 0 0 0 - noteEntryDisplay2 -, f 5;
#X floatatom 286 83 5 0 0 0 - noteEntryDisplay3 -, f 5;
#X floatatom 324 83 5 0 0 0 - noteEntryDisplay4 -, f 5;
#X floatatom 360 83 5 0 0 0 - noteEntryDisplay5 -, f 5;
#X floatatom 394 83 5 0 0 0 - noteEntryDisplay6 -, f 5;
#X floatatom 430 83 5 0 0 0 - noteEntryDisplay7 -, f 5;
#X floatatom 471 83 5 0 0 0 - noteEntryDisplay8 -, f 5;
#N canvas 1874 197 954 463 construct-chord 0;
#X obj 126 320 bng 15 250 50 0 ON_flag_snd ON_flag_rcv send_nON 0 -6
0 10 -262144 -1 -1;
#X obj 179 50 inlet;
#X obj 179 161 route 1 2 3 4 5 6 7 8;
#X obj 195 181 vsl 15 128 0 127 0 0 noteEntryDisplay2 empty empty 0
-9 0 10 -262144 -1 -1 0 1;
#X obj 179 181 vsl 15 128 0 127 0 0 noteEntryDisplay1 empty empty 0
-9 0 10 -262144 -1 -1 0 1;
#X obj 212 181 vsl 15 128 0 127 0 0 noteEntryDisplay3 empty empty 0
-9 0 10 -262144 -1 -1 0 1;
#X obj 228 181 vsl 15 128 0 127 0 0 noteEntryDisplay4 empty empty 0
-9 0 10 -262144 -1 -1 0 1;
#X obj 261 181 vsl 15 128 0 127 0 0 noteEntryDisplay6 empty empty 0
-9 0 10 -262144 -1 -1 0 1;
#X obj 245 181 vsl 15 128 0 127 0 0 noteEntryDisplay5 empty empty 0
-9 0 10 -262144 -1 -1 0 1;
#X obj 278 181 vsl 15 128 0 127 0 0 noteEntryDisplay7 empty empty 0
-9 0 10 -262144 -1 -1 0 1;
#X obj 294 181 vsl 15 128 0 127 0 0 noteEntryDisplay8 empty empty 0
-9 0 10 -262144 -1 -1 0 1;
#X obj 195 100 delay 155 1 msec;
#X obj 310 335 int;
#X obj 288 335 int;
#X obj 266 335 int;
#X obj 244 335 int;
#X obj 222 335 int;
#X obj 200 335 int;
#X obj 178 335 int;
#X obj 155 335 int;
#X floatatom 76 162 5 0 0 0 reset_values - -, f 5;
#X obj -3 147 bng 15 250 50 0 empty start_chord_entry_mode start_chord_entry_mode
17 7 0 10 -262144 -1 -1;
#X text 268 25 packed Position & Note;
#X floatatom 44 351 5 0 0 2 fromWriteStep toWriteStep -, f 5;
#X floatatom 351 270 5 0 0 1 noteON_setflag noteON_setflag -, f 5
;
#X obj 411 320 bng 15 250 50 0 OFF_flag_snd OFF_flag_rcv send_OFFs_to_step(howManySteps)
17 7 0 10 -262144 -1 -1;
#X obj 373 335 int;
#X floatatom 373 292 5 0 0 1 noteOFF_setflag noteOFF_setflag -, f
5;
#X msg 336 161 1;
#X obj 220 68 bng 15 250 50 0 set_nON_1_reset_OFF empty set_nON_1_reset_OFF
17 7 0 10 -262144 -1 -1;
#X msg 421 161 0;
#N canvas 1603 574 1335 503 duration-patchesss 0;
#N canvas 2096 453 714 323 duration-in-steps 0;
#X obj 64 45 select 54 56 58 61 63 66 68 70;
#X obj 64 72 bng 15 250 50 0 empty empty empty 17 7 0 10 -262144 -1
-1;
#X obj 85 71 bng 15 250 50 0 empty empty empty 17 7 0 10 -262144 -1
-1;
#X obj 108 72 bng 15 250 50 0 empty empty empty 17 7 0 10 -262144 -1
-1;
#X obj 130 72 bng 15 250 50 0 empty empty empty 17 7 0 10 -262144 -1
-1;
#X obj 153 72 bng 15 250 50 0 empty empty empty 17 7 0 10 -262144 -1
-1;
#X obj 175 72 bng 15 250 50 0 empty empty empty 17 7 0 10 -262144 -1
-1;
#X obj 196 72 bng 15 250 50 0 empty empty empty 17 7 0 10 -262144 -1
-1;
#X obj 219 72 bng 15 250 50 0 empty empty empty 17 7 0 10 -262144 -1
-1;
#X obj 17 134 int;
#X obj 270 134 int;
#X obj 53 134 int;
#X obj 89 134 int;
#X obj 125 134 int;
#X obj 160 134 int;
#X obj 197 134 int;
#X obj 234 134 int;
#X obj 360 70 loadbang;
#X floatatom 17 153 5 0 0 0 - - -, f 5;
#X floatatom 53 153 5 0 0 0 - - -, f 5;
#X floatatom 89 153 5 0 0 0 - - -, f 5;
#X floatatom 125 153 5 0 0 0 - - -, f 5;
#X floatatom 160 153 5 0 0 0 - - -, f 5;
#X floatatom 197 153 5 0 0 0 - - -, f 5;
#X floatatom 234 153 5 0 0 0 - - -, f 5;
#X floatatom 270 153 5 0 0 0 - - -, f 5;
#X msg 359 116 0;
#X msg 390 116 1;
#X msg 422 116 2;
#X msg 449 116 3;
#X msg 483 116 4;
#X msg 513 116 5;
#X msg 545 116 6;
#X msg 591 116 7;
#X msg 17 103 0;
#X msg 53 103 1;
#X msg 89 103 2;
#X msg 125 103 3;
#X msg 160 103 4;
#X msg 197 104 5;
#X msg 234 103 6;
#X msg 270 103 7;
#X floatatom 124 225 5 0 0 3 duration_in_steps - duration_in_steps
, f 5;
#X floatatom 64 15 5 0 0 1 MIDI_for_duration MIDI_for_duration -,
f 5;
#X obj 279 74 bng 15 250 50 0 empty empty empty 17 7 0 10 -262144 -1
-1;
#X obj 313 134 int;
#X floatatom 313 153 5 0 0 0 - - -, f 5;
#X msg 633 116 3;
#X msg 313 104 0;
#X connect 0 0 1 0;
#X connect 0 1 2 0;
#X connect 0 2 3 0;
#X connect 0 3 4 0;
#X connect 0 4 5 0;
#X connect 0 5 6 0;
#X connect 0 6 7 0;
#X connect 0 7 8 0;
#X connect 0 8 44 0;
#X connect 1 0 34 0;
#X connect 2 0 35 0;
#X connect 3 0 36 0;
#X connect 4 0 37 0;
#X connect 5 0 38 0;
#X connect 6 0 39 0;
#X connect 7 0 40 0;
#X connect 8 0 41 0;
#X connect 9 0 18 0;
#X connect 10 0 25 0;
#X connect 11 0 19 0;
#X connect 12 0 20 0;
#X connect 13 0 21 0;
#X connect 14 0 22 0;
#X connect 15 0 23 0;
#X connect 16 0 24 0;
#X connect 17 0 26 0;
#X connect 17 0 27 0;
#X connect 17 0 28 0;
#X connect 17 0 29 0;
#X connect 17 0 30 0;
#X connect 17 0 31 0;
#X connect 17 0 32 0;
#X connect 17 0 33 0;
#X connect 17 0 47 0;
#X connect 18 0 42 0;
#X connect 19 0 42 0;
#X connect 20 0 42 0;
#X connect 21 0 42 0;
#X connect 22 0 42 0;
#X connect 23 0 42 0;
#X connect 24 0 42 0;
#X connect 25 0 42 0;
#X connect 26 0 9 1;
#X connect 27 0 11 1;
#X connect 28 0 12 1;
#X connect 29 0 13 1;
#X connect 30 0 14 1;
#X connect 31 0 15 1;
#X connect 32 0 16 1;
#X connect 33 0 10 1;
#X connect 34 0 9 0;
#X connect 35 0 11 0;
#X connect 36 0 12 0;
#X connect 37 0 13 0;
#X connect 38 0 14 0;
#X connect 39 0 15 0;
#X connect 40 0 16 0;
#X connect 41 0 10 0;
#X connect 43 0 0 0;
#X connect 44 0 48 0;
#X connect 45 0 46 0;
#X connect 46 0 42 0;
#X connect 47 0 45 1;
#X connect 48 0 45 0;
#X restore 3 42 pd duration-in-steps;
#X floatatom 0 123 5 0 0 1 duration_in_steps duration_in_steps -,
f 5;
#X obj 428 75 +, f 2;
#X floatatom 428 136 5 0 0 3 StepNum_NoteOFF(to:chordConstruct) - StepNum_NoteOFF
, f 5;
#X obj 428 97 mod 16;
#X obj 428 49 bng 15 250 50 0 empty empty empty 17 7 0 10 -262144 -1
-1;
#X obj 188 148 send NumStepsForward;
#X obj 0 146 send NumSteps_for_OFFs;
#X obj 188 17 bng 15 250 50 0 empty moves_more_than_one_step >oneStep(howmanysteps)
17 7 0 10 -262144 -1 -1;
#X obj 188 81 + 1;
#X floatatom 463 32 5 0 0 1 Current_Write_Step toWriteStep -, f 5
;
#X floatatom 202 113 5 0 0 3 NumStepsFwd(to:counters/mvWRITE) - -,
f 5;
#X floatatom 3 2 5 0 0 1 MIDI_for_duration MIDI_for_duration -, f
5;
#X floatatom 3 22 5 0 0 1 Current_Write_Step toWriteStep -, f 5;
#X floatatom 391 26 5 0 0 2 duration_in_steps duration_in_steps -,
f 5;
#X floatatom 203 60 5 0 0 2 StepNum_NoteOFF StepNum_NoteOFF -, f 5
;
#X connect 1 0 7 0;
#X connect 2 0 4 0;
#X connect 4 0 3 0;
#X connect 5 0 2 0;
#X connect 8 0 9 0;
#X connect 9 0 6 0;
#X connect 9 0 11 0;
#X connect 10 0 2 1;
#X connect 10 0 5 0;
#X connect 14 0 2 0;
#X connect 15 0 9 1;
#X restore -5 14 pd duration-patchesss;
#X obj 29 321 bng 15 250 50 0 empty ON_flag_snd ON_flag_snd 17 7 0
10 -262144 -1 -1;
#N canvas 1736 581 450 300 OFF_ctrl 0;
#X obj 156 62 bng 15 250 50 0 empty empty empty 17 7 0 10 -262144 -1
-1;
#X obj 156 148 bng 15 250 50 0 empty empty empty 17 7 0 10 -262144
-1 -1;
#X msg 195 80 set \$1;
#X obj 179 62 tgl 15 0 empty empty empty 17 7 0 10 -262144 -1 -1 0
1;
#X obj 174 148 tgl 15 0 empty empty empty 17 7 0 10 -262144 -1 -1 0
1;
#X obj 156 102 s OFF_flag_rcv;
#X obj 155 123 r OFF_flag_snd;
#X obj 151 16 inlet;
#X obj 152 208 outlet;
#X connect 0 0 5 0;
#X connect 1 0 8 0;
#X connect 2 0 5 0;
#X connect 3 0 2 0;
#X connect 6 0 1 0;
#X connect 6 0 4 0;
#X connect 7 0 0 0;
#X restore -5 54 pd OFF_ctrl;
#X obj 5 257 bng 15 250 50 0 empty OFF_flag_snd OFF_flag_snd 17 7 0
10 -262144 -1 -1;
#N canvas 2698 752 450 300 ON_ctrl 0;
#X obj 3 27 bng 15 250 50 0 empty empty empty 17 7 0 10 -262144 -1
-1;
#X obj 3 112 bng 15 250 50 0 empty empty empty 17 7 0 10 -262144 -1
-1;
#X msg 18 47 set \$1;
#X obj 26 27 tgl 15 0 empty empty empty 17 7 0 10 -262144 -1 -1 0 1
;
#X obj 21 112 tgl 15 0 empty empty empty 17 7 0 10 -262144 -1 -1 0
1;
#X obj 3 65 s ON_flag_rcv;
#X obj 2 86 r ON_flag_snd;
#X obj 3 5 inlet;
#X obj 3 132 outlet;
#X connect 0 0 5 0;
#X connect 1 0 8 0;
#X connect 2 0 5 0;
#X connect 3 0 2 0;
#X connect 6 0 1 0;
#X connect 6 0 4 0;
#X connect 7 0 0 0;
#X restore -5 77 pd ON_ctrl;
#N canvas 2503 247 964 372 howmanysteps 0;
#X obj 128 83 bng 15 250 50 0 moves_one_step_only empty moves_one_step_only
-118 7 0 10 -262144 -1 -1;
#X obj 173 82 bng 15 250 50 0 moves_more_than_one_step empty moves_more_than_one_step
17 7 0 10 -262144 -1 -1;
#X obj 156 109 delay 50 1 msec;
#X obj 128 11 receive NumSteps_for_OFFs;
#X msg 198 214 0;
#X msg 29 215 1;
#X msg 257 214 1;
#X obj 128 59 select 0;
#X floatatom 29 238 5 0 0 3 nON_flag - noteON_setflag, f 5;
#X floatatom 88 238 5 0 0 3 nOFF_flag - noteOFF_setflag, f 5;
#X floatatom 198 240 5 0 0 3 nON_flag - noteON_setflag, f 5;
#X floatatom 257 241 5 0 0 3 nOFF_flag - noteOFF_setflag, f 5;
#X floatatom 128 32 5 0 0 1 (duration-patches) - -, f 5;
#X msg 88 215 1;
#X obj 29 194 bng 15 250 50 0 empty moves_one_step_only one_step -15
-6 0 10 -262144 -1 -1;
#X obj 88 195 bng 15 250 50 0 empty moves_one_step_only one_step -15
-6 0 10 -262144 -1 -1;
#X obj 257 196 bng 15 250 50 0 empty moves_more_than_one_step >one_step
-20 -6 0 10 -262144 -1 -1;
#X obj 198 197 bng 15 250 50 0 empty moves_more_than_one_step >one_step
-20 -6 0 10 -262144 -1 -1;
#X obj 156 136 bng 15 250 50 0 OFF_flag_rcv empty send_OFFs_to_step(chordConstruct)
17 7 0 10 -262144 -1 -1;
#X text 107 299 comment;
#X connect 0 0 2 0;
#X connect 1 0 2 0;
#X connect 2 0 18 0;
#X connect 3 0 12 0;
#X connect 4 0 10 0;
#X connect 5 0 8 0;
#X connect 6 0 11 0;
#X connect 7 0 0 0;
#X connect 7 1 1 0;
#X connect 12 0 7 0;
#X connect 13 0 9 0;
#X connect 14 0 5 0;
#X connect 15 0 13 0;
#X connect 16 0 6 0;
#X connect 17 0 4 0;
#X restore -5 34 pd howmanysteps;
#N canvas 2781 730 450 300 extrazzz 0;
#X obj 105 39 unpack 0 0 0 0 0 0 0 0 0 0 0;
#X floatatom 39 119 5 0 0 0 - - -, f 5;
#X floatatom 59 163 5 0 0 0 - - -, f 5;
#X floatatom 92 163 5 0 0 0 - - -, f 5;
#X floatatom 124 163 5 0 0 0 - - -, f 5;
#X floatatom 254 163 5 0 0 0 - - -, f 5;
#X floatatom 287 163 5 0 0 0 - - -, f 5;
#X floatatom 291 139 5 0 0 0 - - -, f 5;
#X floatatom 157 163 5 0 0 0 - - -, f 5;
#X floatatom 189 163 5 0 0 0 - - -, f 5;
#X floatatom 222 163 5 0 0 0 - - -, f 5;
#X floatatom 337 138 5 0 0 0 - - -, f 5;
#X connect 0 0 1 0;
#X connect 0 1 2 0;
#X connect 0 2 3 0;
#X connect 0 3 4 0;
#X connect 0 4 8 0;
#X connect 0 5 9 0;
#X connect 0 6 10 0;
#X connect 0 7 5 0;
#X connect 0 8 6 0;
#X connect 0 9 7 0;
#X connect 0 10 11 0;
#X restore -7 99 pd extrazzz;
#X floatatom 127 15 5 0 0 1 MIDI_for_duration MIDI_for_duration -,
f 5;
#X obj 351 335 int;
#X floatatom 20 290 5 0 0 2 SN_OFF(dur-patch) StepNum_NoteOFF -, f
5;
#X obj 195 122 bng 15 250 50 0 ON_flag_rcv empty send_nON(delay) 17
7 0 10 -262144 -1 -1;
#X floatatom 336 179 5 0 0 3 nON_setflag - noteON_setflag, f 5;
#X floatatom 421 179 5 0 0 3 nOFF_setflag - noteOFF_setflag, f 5;
#X obj 383 130 bng 15 250 50 0 empty set_nON_1_reset_OFF set_nON_1_reset_OFF
17 7 0 10 -262144 -1 -1;
#X obj 173 457 outlet;
#X obj 29 373 int;
#X obj 5 373 int;
#X obj 173 391 pack 0 0 0 0 0 0 0 0 0 0 0;
#X floatatom 29 395 5 0 0 1 SN_ON_(prevEntry) - -, f 5;
#X floatatom 5 416 5 0 0 3 SN_OFF_(prevEntry) - -, f 5;
#N canvas 2450 783 954 262 zeroBetweens 0;
#X obj 139 168 pack 0 0 0 0 0 0 0 0 0 0 0;
#X floatatom 135 81 5 0 0 0 - - -, f 5;
#X floatatom 169 81 5 0 0 0 - - -, f 5;
#X floatatom 203 81 5 0 0 0 - - -, f 5;
#X floatatom 237 81 5 0 0 0 - - -, f 5;
#X floatatom 271 81 5 0 0 0 - - -, f 5;
#X floatatom 305 81 5 0 0 0 - - -, f 5;
#X floatatom 339 81 5 0 0 0 - - -, f 5;
#X floatatom 373 81 5 0 0 0 - - -, f 5;
#X floatatom 407 81 5 0 0 0 - - -, f 5;
#X floatatom 441 81 5 0 0 0 - - -, f 5;
#X obj 15 89 until;
#X obj 73 121 + 1;
#X obj 64 90 + 1;
#X floatatom 15 17 5 0 0 2 duration_in_steps duration_in_steps -,
f 5;
#X floatatom 64 65 5 0 0 2 Current_Write_Step toWriteStep -, f 5;
#X obj 15 39 - 1;
#X floatatom 15 62 5 0 0 0 - - -, f 5;
#X obj 15 118 int;
#X obj 73 141 mod 16;
#X floatatom 14 151 5 0 0 0 - - -, f 5;
#X obj 139 191 outlet;
#X connect 0 0 21 0;
#X connect 1 0 0 1;
#X connect 2 0 0 2;
#X connect 3 0 0 3;
#X connect 4 0 0 4;
#X connect 5 0 0 5;
#X connect 6 0 0 6;
#X connect 7 0 0 7;
#X connect 8 0 0 8;
#X connect 9 0 0 9;
#X connect 10 0 0 10;
#X connect 11 0 18 0;
#X connect 12 0 19 0;
#X connect 13 0 18 1;
#X connect 14 0 16 0;
#X connect 15 0 13 0;
#X connect 16 0 17 0;
#X connect 17 0 11 0;
#X connect 18 0 12 0;
#X connect 18 0 20 0;
#X connect 19 0 18 1;
#X connect 20 0 0 0;
#X restore 225 418 pd zeroBetweens;
#X connect 0 0 12 0;
#X connect 0 0 13 0;
#X connect 0 0 14 0;
#X connect 0 0 15 0;
#X connect 0 0 16 0;
#X connect 0 0 17 0;
#X connect 0 0 18 0;
#X connect 0 0 19 0;
#X connect 1 0 2 0;
#X connect 1 0 11 0;
#X connect 1 0 29 0;
#X connect 2 0 4 0;
#X connect 2 1 3 0;
#X connect 2 2 5 0;
#X connect 2 3 6 0;
#X connect 2 4 8 0;
#X connect 2 5 7 0;
#X connect 2 6 9 0;
#X connect 2 7 10 0;
#X connect 3 0 18 1;
#X connect 4 0 19 1;
#X connect 5 0 17 1;
#X connect 6 0 16 1;
#X connect 7 0 14 1;
#X connect 8 0 15 1;
#X connect 9 0 13 1;
#X connect 10 0 12 1;
#X connect 11 0 41 0;
#X connect 12 0 48 8;
#X connect 13 0 48 7;
#X connect 14 0 48 6;
#X connect 15 0 48 5;
#X connect 16 0 48 4;
#X connect 17 0 48 3;
#X connect 18 0 48 2;
#X connect 19 0 48 1;
#X connect 20 0 4 0;
#X connect 20 0 3 0;
#X connect 20 0 5 0;
#X connect 20 0 6 0;
#X connect 20 0 8 0;
#X connect 20 0 7 0;
#X connect 20 0 9 0;
#X connect 20 0 10 0;
#X connect 20 0 42 0;
#X connect 20 0 43 0;
#X connect 21 0 20 0;
#X connect 23 0 46 1;
#X connect 24 0 39 0;
#X connect 25 0 19 0;
#X connect 25 0 18 0;
#X connect 25 0 17 0;
#X connect 25 0 16 0;
#X connect 25 0 15 0;
#X connect 25 0 14 0;
#X connect 25 0 13 0;
#X connect 25 0 12 0;
#X connect 25 0 26 0;
#X connect 26 0 48 10;
#X connect 27 0 26 0;
#X connect 28 0 42 0;
#X connect 30 0 43 0;
#X connect 32 0 46 0;
#X connect 34 0 47 0;
#X connect 39 0 48 9;
#X connect 40 0 47 1;
#X connect 44 0 28 0;
#X connect 44 0 30 0;
#X connect 46 0 48 0;
#X connect 46 0 49 0;
#X connect 47 0 48 0;
#X connect 47 0 50 0;
#X connect 48 0 45 0;
#X connect 51 0 45 0;
#X restore 2 22 pd construct-chord;
#X floatatom 273 33 5 0 0 1 ONcount ONcount -, f 5;
#X floatatom 358 33 5 0 0 1 OFFcount OFFcount -, f 5;
#N canvas 2050 714 1382 464 ChordBank 0;
#X floatatom 84 9 5 0 0 0 playseqSTEP playseq_to_ONnOFF -, f 5;
#N canvas 690 521 794 375 SeQ--1 0;
#X obj 85 39 receive chord_step__1;
#X floatatom 21 116 5 0 0 0 - - -, f 5;
#X floatatom 124 116 5 0 0 0 - - -, f 5;
#X floatatom 56 116 5 0 0 0 - - -, f 5;
#X floatatom 90 116 5 0 0 0 - - -, f 5;
#X floatatom 158 116 5 0 0 0 - - -, f 5;
#X floatatom 262 116 5 0 0 0 - - -, f 5;
#X floatatom 193 116 5 0 0 0 - - -, f 5;
#X floatatom 227 116 5 0 0 0 - - -, f 5;
#X obj 122 200 int;
#X obj 12 200 int;
#X obj 77 200 int;
#X obj 38 200 int;
#X obj 261 200 int;
#X obj 151 200 int;
#X obj 216 200 int;
#X obj 187 200 int;
#X obj 293 185 bng 15 250 50 0 empty empty empty 17 7 0 10 -262144
-1 -1;
#X obj 305 36 inlet;
#X obj 517 167 delay 10 1 msec;
#X floatatom 215 327 5 0 0 0 - - -, f 5;
#X obj 217 272 loadbang;
#X obj 454 236 bng 15 250 50 0 empty empty empty 17 7 0 10 -262144
-1 -1;
#X floatatom 354 349 5 0 0 0 - - -, f 5;
#X obj 318 312 bng 15 250 50 0 empty empty empty 17 7 0 10 -262144
-1 -1;
#X obj 318 287 delay 20 1 msec;
#X obj 96 328 select 0;
#X obj 126 408 noteout 8;
#X obj 451 43 inlet;
#X text 303 17 note ON;
#X text 452 15 noteOFF;
#X text 310 181 sends_bang_with_midi_sync;
#X obj 275 376 int;
#X floatatom 275 399 5 0 0 0 - - -, f 5;
#X obj 81 76 unpack 0 0 0 0 0 0 0 0 0 0;
#X obj 316 106 int;
#X obj 298 148 select 1;
#X obj 426 126 select 1;
#X obj 447 94 int;
#X obj 309 67 bng 15 250 50 0 empty empty empty 17 7 0 10 -262144 -1
-1;
#X obj 448 66 bng 15 250 50 0 empty empty empty 17 7 0 10 -262144 -1
-1;
#X floatatom 510 123 5 0 0 0 - - -, f 5;
#X floatatom 364 123 5 0 0 0 - - -, f 5;
#X msg 215 293 96;
#X obj 16 57 outlet;
#X obj 440 312 receive ctrl_midi_velocity;
#X connect 0 0 34 0;
#X connect 0 0 44 0;
#X connect 1 0 10 1;
#X connect 2 0 9 1;
#X connect 3 0 12 1;
#X connect 4 0 11 1;
#X connect 5 0 14 1;
#X connect 6 0 13 1;
#X connect 7 0 16 1;
#X connect 8 0 15 1;
#X connect 9 0 26 0;
#X connect 10 0 26 0;
#X connect 11 0 26 0;
#X connect 12 0 26 0;
#X connect 13 0 26 0;
#X connect 14 0 26 0;
#X connect 15 0 26 0;
#X connect 16 0 26 0;
#X connect 17 0 10 0;
#X connect 17 0 12 0;
#X connect 17 0 11 0;
#X connect 17 0 9 0;
#X connect 17 0 14 0;
#X connect 17 0 16 0;
#X connect 17 0 15 0;
#X connect 17 0 13 0;
#X connect 18 0 39 0;
#X connect 19 0 17 0;
#X connect 20 0 32 0;
#X connect 21 0 43 0;
#X connect 22 0 23 0;
#X connect 22 0 25 0;
#X connect 22 0 19 0;
#X connect 23 0 32 0;
#X connect 24 0 20 0;
#X connect 25 0 24 0;
#X connect 26 1 27 0;
#X connect 28 0 40 0;
#X connect 32 0 27 1;
#X connect 32 0 33 0;
#X connect 34 0 1 0;
#X connect 34 1 3 0;
#X connect 34 2 4 0;
#X connect 34 3 2 0;
#X connect 34 4 5 0;
#X connect 34 5 7 0;
#X connect 34 6 8 0;
#X connect 34 7 6 0;
#X connect 34 8 35 1;
#X connect 34 8 42 0;
#X connect 34 9 38 1;
#X connect 34 9 41 0;
#X connect 35 0 36 0;
#X connect 36 0 17 0;
#X connect 37 0 22 0;
#X connect 38 0 37 0;
#X connect 39 0 35 0;
#X connect 40 0 38 0;
#X connect 43 0 20 0;
#X connect 45 0 20 0;
#X restore 5 49 pd SeQ--1;
#N canvas 3 614 651 463 SeQ--3 0;
#X floatatom 21 116 5 0 0 0 - - -, f 5;
#X floatatom 124 116 5 0 0 0 - - -, f 5;
#X floatatom 56 116 5 0 0 0 - - -, f 5;
#X floatatom 90 116 5 0 0 0 - - -, f 5;
#X floatatom 158 116 5 0 0 0 - - -, f 5;
#X floatatom 262 116 5 0 0 0 - - -, f 5;
#X floatatom 193 116 5 0 0 0 - - -, f 5;
#X floatatom 227 116 5 0 0 0 - - -, f 5;
#X obj 122 200 int;
#X obj 12 200 int;
#X obj 77 200 int;
#X obj 38 200 int;
#X obj 261 200 int;
#X obj 151 200 int;
#X obj 216 200 int;
#X obj 187 200 int;
#X obj 293 185 bng 15 250 50 0 empty empty empty 17 7 0 10 -262144
-1 -1;
#X obj 270 19 inlet;
#X obj 517 167 delay 10 1 msec;
#X floatatom 215 327 5 0 0 0 - - -, f 5;
#X obj 217 272 loadbang;
#X obj 459 225 bng 15 250 50 0 empty empty empty 17 7 0 10 -262144
-1 -1;
#X msg 215 293 64;
#X floatatom 354 349 5 0 0 0 - - -, f 5;
#X obj 318 312 bng 15 250 50 0 empty empty empty 17 7 0 10 -262144
-1 -1;
#X obj 318 287 delay 20 1 msec;
#X obj 96 328 select 0;
#X obj 126 408 noteout 8;
#X obj 417 19 inlet;
#X text 304 21 note ON;
#X text 452 15 noteOFF;
#X text 310 181 sends_bang_with_midi_sync;
#X obj 275 376 int;
#X floatatom 275 399 5 0 0 0 - - -, f 5;
#X obj 80 68 unpack 0 0 0 0 0 0 0 0 0 0;
#X obj 311 110 int, f 8;
#X obj 348 143 select 1;
#X obj 426 126 select 1;
#X obj 447 94 int;
#X obj 309 67 bng 15 250 50 0 empty empty empty 17 7 0 10 -262144 -1
-1;
#X obj 448 66 bng 15 250 50 0 empty empty empty 17 7 0 10 -262144 -1
-1;
#X floatatom 501 88 5 0 0 0 - - -, f 5;
#X floatatom 369 89 5 0 0 0 - - -, f 5;
#X obj 84 39 receive chord_step__3;
#X obj 16 57 outlet;
#X obj 440 312 receive ctrl_midi_velocity;
#X connect 0 0 9 1;
#X connect 1 0 8 1;
#X connect 2 0 11 1;
#X connect 3 0 10 1;
#X connect 4 0 13 1;
#X connect 5 0 12 1;
#X connect 6 0 15 1;
#X connect 7 0 14 1;
#X connect 8 0 26 0;
#X connect 9 0 26 0;
#X connect 10 0 26 0;
#X connect 11 0 26 0;
#X connect 12 0 26 0;
#X connect 13 0 26 0;
#X connect 14 0 26 0;
#X connect 15 0 26 0;
#X connect 16 0 9 0;
#X connect 16 0 11 0;
#X connect 16 0 10 0;
#X connect 16 0 8 0;
#X connect 16 0 13 0;
#X connect 16 0 15 0;
#X connect 16 0 14 0;
#X connect 16 0 12 0;
#X connect 17 0 39 0;
#X connect 18 0 16 0;
#X connect 19 0 32 0;
#X connect 20 0 22 0;
#X connect 21 0 23 0;
#X connect 21 0 25 0;
#X connect 21 0 18 0;
#X connect 22 0 19 0;
#X connect 23 0 32 0;
#X connect 24 0 19 0;
#X connect 25 0 24 0;
#X connect 26 1 27 0;
#X connect 28 0 40 0;
#X connect 32 0 27 1;
#X connect 32 0 33 0;
#X connect 34 0 0 0;
#X connect 34 1 2 0;
#X connect 34 2 3 0;
#X connect 34 3 1 0;
#X connect 34 4 4 0;
#X connect 34 5 6 0;
#X connect 34 6 7 0;
#X connect 34 7 5 0;
#X connect 34 8 35 1;
#X connect 34 8 42 0;
#X connect 34 9 38 1;
#X connect 34 9 41 0;
#X connect 35 0 36 0;
#X connect 36 0 16 0;
#X connect 37 0 21 0;
#X connect 38 0 37 0;
#X connect 39 0 35 0;
#X connect 40 0 38 0;
#X connect 43 0 34 0;
#X connect 43 0 44 0;
#X connect 45 0 19 0;
#X restore 125 49 pd SeQ--3;
#N canvas 803 691 794 386 SeQ--4 0;
#X floatatom 21 116 5 0 0 0 - - -, f 5;
#X floatatom 124 116 5 0 0 0 - - -, f 5;
#X floatatom 56 116 5 0 0 0 - - -, f 5;
#X floatatom 90 116 5 0 0 0 - - -, f 5;
#X floatatom 158 116 5 0 0 0 - - -, f 5;
#X floatatom 262 116 5 0 0 0 - - -, f 5;
#X floatatom 193 116 5 0 0 0 - - -, f 5;
#X floatatom 227 116 5 0 0 0 - - -, f 5;
#X obj 122 200 int;
#X obj 12 200 int;
#X obj 77 200 int;
#X obj 38 200 int;
#X obj 261 200 int;
#X obj 151 200 int;
#X obj 216 200 int;
#X obj 187 200 int;
#X obj 293 185 bng 15 250 50 0 empty empty empty 17 7 0 10 -262144
-1 -1;
#X obj 305 36 inlet;
#X obj 517 167 delay 10 1 msec;
#X floatatom 215 327 5 0 0 0 - - -, f 5;
#X obj 217 272 loadbang;
#X obj 454 236 bng 15 250 50 0 empty empty empty 17 7 0 10 -262144
-1 -1;
#X floatatom 354 349 5 0 0 0 - - -, f 5;
#X obj 318 312 bng 15 250 50 0 empty empty empty 17 7 0 10 -262144
-1 -1;
#X obj 319 266 delay 20 1 msec;
#X obj 96 328 select 0;
#X obj 126 408 noteout 8;
#X obj 451 43 inlet;
#X text 303 17 note ON;
#X text 452 15 noteOFF;
#X text 310 181 sends_bang_with_midi_sync;
#X obj 275 376 int;
#X floatatom 275 399 5 0 0 0 - - -, f 5;
#X obj 81 76 unpack 0 0 0 0 0 0 0 0 0 0;
#X obj 316 106 int;
#X obj 298 148 select 1;
#X obj 426 126 select 1;
#X obj 447 94 int;
#X obj 309 67 bng 15 250 50 0 empty empty empty 17 7 0 10 -262144 -1
-1;
#X obj 448 66 bng 15 250 50 0 empty empty empty 17 7 0 10 -262144 -1
-1;
#X floatatom 505 122 5 0 0 0 - - -, f 5;
#X floatatom 352 124 5 0 0 0 - - -, f 5;
#X obj 84 39 receive chord_step__4;
#X msg 183 298 96;
#X obj 16 57 outlet;
#X obj 440 312 receive ctrl_midi_velocity;
#X connect 0 0 9 1;
#X connect 1 0 8 1;
#X connect 2 0 11 1;
#X connect 3 0 10 1;
#X connect 4 0 13 1;
#X connect 5 0 12 1;
#X connect 6 0 15 1;
#X connect 7 0 14 1;
#X connect 8 0 25 0;
#X connect 9 0 25 0;
#X connect 10 0 25 0;
#X connect 11 0 25 0;
#X connect 12 0 25 0;
#X connect 13 0 25 0;
#X connect 14 0 25 0;
#X connect 15 0 25 0;
#X connect 16 0 9 0;
#X connect 16 0 11 0;
#X connect 16 0 10 0;
#X connect 16 0 8 0;
#X connect 16 0 13 0;
#X connect 16 0 15 0;
#X connect 16 0 14 0;
#X connect 16 0 12 0;
#X connect 17 0 38 0;
#X connect 18 0 16 0;
#X connect 19 0 31 0;
#X connect 20 0 43 0;
#X connect 21 0 22 0;
#X connect 21 0 24 0;
#X connect 21 0 18 0;
#X connect 22 0 31 0;
#X connect 23 0 19 0;
#X connect 24 0 23 0;
#X connect 25 1 26 0;
#X connect 27 0 39 0;
#X connect 31 0 26 1;
#X connect 31 0 32 0;
#X connect 33 0 0 0;
#X connect 33 1 2 0;
#X connect 33 2 3 0;
#X connect 33 3 1 0;
#X connect 33 4 4 0;
#X connect 33 5 6 0;
#X connect 33 6 7 0;
#X connect 33 7 5 0;
#X connect 33 8 34 1;
#X connect 33 9 37 1;
#X connect 34 0 35 0;
#X connect 34 0 41 0;
#X connect 35 0 16 0;
#X connect 36 0 21 0;
#X connect 37 0 36 0;
#X connect 37 0 40 0;
#X connect 38 0 34 0;
#X connect 39 0 37 0;
#X connect 42 0 33 0;
#X connect 42 0 44 0;
#X connect 43 0 19 0;
#X connect 45 0 19 0;
#X restore 185 49 pd SeQ--4;
#N canvas 2880 502 570 445 SeQ--5 0;
#X floatatom 21 116 5 0 0 0 - - -, f 5;
#X floatatom 124 116 5 0 0 0 - - -, f 5;
#X floatatom 56 116 5 0 0 0 - - -, f 5;
#X floatatom 90 116 5 0 0 0 - - -, f 5;
#X floatatom 158 116 5 0 0 0 - - -, f 5;
#X floatatom 262 116 5 0 0 0 - - -, f 5;
#X floatatom 193 116 5 0 0 0 - - -, f 5;
#X floatatom 227 116 5 0 0 0 - - -, f 5;
#X obj 122 200 int;
#X obj 12 200 int;
#X obj 77 200 int;
#X obj 38 200 int;
#X obj 261 200 int;
#X obj 151 200 int;
#X obj 216 200 int;
#X obj 187 200 int;
#X obj 293 185 bng 15 250 50 0 empty empty empty 17 7 0 10 -262144
-1 -1;
#X obj 305 36 inlet;
#X obj 517 167 delay 10 1 msec;
#X floatatom 215 327 5 0 0 0 - - -, f 5;
#X obj 217 272 loadbang;
#X obj 454 236 bng 15 250 50 0 empty empty empty 17 7 0 10 -262144
-1 -1;
#X floatatom 354 349 5 0 0 0 - - -, f 5;
#X obj 318 312 bng 15 250 50 0 empty empty empty 17 7 0 10 -262144
-1 -1;
#X obj 318 287 delay 20 1 msec;
#X obj 96 328 select 0;
#X obj 126 408 noteout 8;
#X obj 451 43 inlet;
#X text 303 17 note ON;
#X text 452 15 noteOFF;
#X text 310 181 sends_bang_with_midi_sync;
#X obj 275 376 int;
#X floatatom 275 399 5 0 0 0 - - -, f 5;
#X obj 81 76 unpack 0 0 0 0 0 0 0 0 0 0;
#X obj 316 106 int;
#X obj 298 148 select 1;
#X obj 426 126 select 1;
#X obj 447 94 int;
#X obj 309 67 bng 15 250 50 0 empty empty empty 17 7 0 10 -262144 -1
-1;
#X obj 448 66 bng 15 250 50 0 empty empty empty 17 7 0 10 -262144 -1
-1;
#X floatatom 505 122 5 0 0 0 - - -, f 5;
#X floatatom 352 124 5 0 0 0 - - -, f 5;
#X obj 84 39 receive chord_step__5;
#X msg 214 293 96;
#X obj 16 57 outlet;
#X obj 440 312 receive ctrl_midi_velocity;
#X connect 0 0 9 1;
#X connect 1 0 8 1;
#X connect 2 0 11 1;
#X connect 3 0 10 1;
#X connect 4 0 13 1;
#X connect 5 0 12 1;
#X connect 6 0 15 1;
#X connect 7 0 14 1;
#X connect 8 0 25 0;
#X connect 9 0 25 0;
#X connect 10 0 25 0;
#X connect 11 0 25 0;
#X connect 12 0 25 0;
#X connect 13 0 25 0;
#X connect 14 0 25 0;
#X connect 15 0 25 0;
#X connect 16 0 9 0;
#X connect 16 0 11 0;
#X connect 16 0 10 0;
#X connect 16 0 8 0;
#X connect 16 0 13 0;
#X connect 16 0 15 0;
#X connect 16 0 14 0;
#X connect 16 0 12 0;
#X connect 17 0 38 0;
#X connect 18 0 16 0;
#X connect 19 0 31 0;
#X connect 20 0 43 0;
#X connect 21 0 22 0;
#X connect 21 0 24 0;
#X connect 21 0 18 0;
#X connect 22 0 31 0;
#X connect 23 0 19 0;
#X connect 24 0 23 0;
#X connect 25 1 26 0;
#X connect 27 0 39 0;
#X connect 31 0 26 1;
#X connect 31 0 32 0;
#X connect 33 0 0 0;
#X connect 33 1 2 0;
#X connect 33 2 3 0;
#X connect 33 3 1 0;
#X connect 33 4 4 0;
#X connect 33 5 6 0;
#X connect 33 6 7 0;
#X connect 33 7 5 0;
#X connect 33 8 34 1;
#X connect 33 9 37 1;
#X connect 34 0 35 0;
#X connect 34 0 41 0;
#X connect 35 0 16 0;
#X connect 36 0 21 0;
#X connect 37 0 36 0;
#X connect 37 0 40 0;
#X connect 38 0 34 0;
#X connect 39 0 37 0;
#X connect 42 0 33 0;
#X connect 42 0 44 0;
#X connect 43 0 19 0;
#X connect 45 0 19 0;
#X restore 245 49 pd SeQ--5;
#N canvas 2376 779 948 646 SeQ--6 0;
#X floatatom 21 116 5 0 0 0 - - -, f 5;
#X floatatom 124 116 5 0 0 0 - - -, f 5;
#X floatatom 56 116 5 0 0 0 - - -, f 5;
#X floatatom 90 116 5 0 0 0 - - -, f 5;
#X floatatom 158 116 5 0 0 0 - - -, f 5;
#X floatatom 262 116 5 0 0 0 - - -, f 5;
#X floatatom 193 116 5 0 0 0 - - -, f 5;
#X floatatom 227 116 5 0 0 0 - - -, f 5;
#X obj 122 200 int;
#X obj 12 200 int;
#X obj 77 200 int;
#X obj 38 200 int;
#X obj 261 200 int;
#X obj 151 200 int;
#X obj 216 200 int;
#X obj 187 200 int;
#X obj 293 185 bng 15 250 50 0 empty empty empty 17 7 0 10 -262144
-1 -1;
#X obj 305 36 inlet;
#X obj 517 167 delay 10 1 msec;
#X floatatom 215 327 5 0 0 0 - - -, f 5;
#X obj 217 272 loadbang;
#X obj 454 236 bng 15 250 50 0 empty empty empty 17 7 0 10 -262144
-1 -1;
#X msg 215 293 64;
#X floatatom 354 349 5 0 0 0 - - -, f 5;
#X obj 318 312 bng 15 250 50 0 empty empty empty 17 7 0 10 -262144
-1 -1;
#X obj 318 287 delay 20 1 msec;
#X obj 96 328 select 0;
#X obj 126 408 noteout 8;
#X obj 451 43 inlet;
#X text 303 17 note ON;
#X text 452 15 noteOFF;
#X text 310 181 sends_bang_with_midi_sync;
#X obj 275 376 int;
#X floatatom 275 399 5 0 0 0 - - -, f 5;
#X obj 81 76 unpack 0 0 0 0 0 0 0 0 0 0;
#X obj 316 106 int;
#X obj 298 148 select 1;
#X obj 426 126 select 1;
#X obj 447 94 int;
#X obj 309 67 bng 15 250 50 0 empty empty empty 17 7 0 10 -262144 -1
-1;
#X obj 448 66 bng 15 250 50 0 empty empty empty 17 7 0 10 -262144 -1
-1;
#X floatatom 505 122 5 0 0 0 - - -, f 5;
#X floatatom 352 124 5 0 0 0 - - -, f 5;
#X obj 84 39 receive chord_step__6;
#X obj 16 57 outlet;
#X obj 440 312 receive ctrl_midi_velocity;
#X connect 0 0 9 1;
#X connect 1 0 8 1;
#X connect 2 0 11 1;
#X connect 3 0 10 1;
#X connect 4 0 13 1;
#X connect 5 0 12 1;
#X connect 6 0 15 1;
#X connect 7 0 14 1;
#X connect 8 0 26 0;
#X connect 9 0 26 0;
#X connect 10 0 26 0;
#X connect 11 0 26 0;
#X connect 12 0 26 0;
#X connect 13 0 26 0;
#X connect 14 0 26 0;
#X connect 15 0 26 0;
#X connect 16 0 9 0;
#X connect 16 0 11 0;
#X connect 16 0 10 0;
#X connect 16 0 8 0;
#X connect 16 0 13 0;
#X connect 16 0 15 0;
#X connect 16 0 14 0;
#X connect 16 0 12 0;
#X connect 17 0 39 0;
#X connect 18 0 16 0;
#X connect 19 0 32 0;
#X connect 20 0 22 0;
#X connect 21 0 23 0;
#X connect 21 0 25 0;
#X connect 21 0 18 0;
#X connect 22 0 19 0;
#X connect 23 0 32 0;
#X connect 24 0 19 0;
#X connect 25 0 24 0;
#X connect 26 1 27 0;
#X connect 28 0 40 0;
#X connect 32 0 27 1;
#X connect 32 0 33 0;
#X connect 34 0 0 0;
#X connect 34 1 2 0;
#X connect 34 2 3 0;
#X connect 34 3 1 0;
#X connect 34 4 4 0;
#X connect 34 5 6 0;
#X connect 34 6 7 0;
#X connect 34 7 5 0;
#X connect 34 8 35 1;
#X connect 34 9 38 1;
#X connect 35 0 36 0;
#X connect 35 0 42 0;
#X connect 36 0 16 0;
#X connect 37 0 21 0;
#X connect 38 0 37 0;
#X connect 38 0 41 0;
#X connect 39 0 35 0;
#X connect 40 0 38 0;
#X connect 43 0 34 0;
#X connect 43 0 44 0;
#X connect 45 0 19 0;
#X restore 305 49 pd SeQ--6;
#N canvas 1673 206 948 646 SeQ--7 0;
#X floatatom 21 116 5 0 0 0 - - -, f 5;
#X floatatom 124 116 5 0 0 0 - - -, f 5;
#X floatatom 56 116 5 0 0 0 - - -, f 5;
#X floatatom 90 116 5 0 0 0 - - -, f 5;
#X floatatom 158 116 5 0 0 0 - - -, f 5;
#X floatatom 262 116 5 0 0 0 - - -, f 5;
#X floatatom 193 116 5 0 0 0 - - -, f 5;
#X floatatom 227 116 5 0 0 0 - - -, f 5;
#X obj 122 200 int;
#X obj 12 200 int;
#X obj 77 200 int;
#X obj 38 200 int;
#X obj 261 200 int;
#X obj 151 200 int;
#X obj 216 200 int;
#X obj 187 200 int;
#X obj 293 185 bng 15 250 50 0 empty empty empty 17 7 0 10 -262144
-1 -1;
#X obj 305 36 inlet;
#X obj 517 167 delay 10 1 msec;
#X floatatom 215 327 5 0 0 0 - - -, f 5;
#X obj 217 272 loadbang;
#X obj 454 236 bng 15 250 50 0 empty empty empty 17 7 0 10 -262144
-1 -1;
#X msg 215 293 64;
#X floatatom 354 349 5 0 0 0 - - -, f 5;
#X obj 318 312 bng 15 250 50 0 empty empty empty 17 7 0 10 -262144
-1 -1;
#X obj 318 287 delay 20 1 msec;
#X obj 96 328 select 0;
#X obj 126 408 noteout 8;
#X obj 451 43 inlet;
#X text 303 17 note ON;
#X text 452 15 noteOFF;
#X text 310 181 sends_bang_with_midi_sync;
#X obj 275 376 int;
#X floatatom 275 399 5 0 0 0 - - -, f 5;
#X obj 81 76 unpack 0 0 0 0 0 0 0 0 0 0;
#X obj 316 106 int;
#X obj 298 148 select 1;
#X obj 426 126 select 1;
#X obj 447 94 int;
#X obj 309 67 bng 15 250 50 0 empty empty empty 17 7 0 10 -262144 -1
-1;
#X obj 448 66 bng 15 250 50 0 empty empty empty 17 7 0 10 -262144 -1
-1;
#X floatatom 505 122 5 0 0 0 - - -, f 5;
#X floatatom 352 124 5 0 0 0 - - -, f 5;
#X obj 84 39 receive chord_step__7;
#X obj 16 57 outlet;
#X obj 440 312 receive ctrl_midi_velocity;
#X connect 0 0 9 1;
#X connect 1 0 8 1;
#X connect 2 0 11 1;
#X connect 3 0 10 1;
#X connect 4 0 13 1;
#X connect 5 0 12 1;
#X connect 6 0 15 1;
#X connect 7 0 14 1;
#X connect 8 0 26 0;
#X connect 9 0 26 0;
#X connect 10 0 26 0;
#X connect 11 0 26 0;
#X connect 12 0 26 0;
#X connect 13 0 26 0;
#X connect 14 0 26 0;
#X connect 15 0 26 0;
#X connect 16 0 9 0;
#X connect 16 0 11 0;
#X connect 16 0 10 0;
#X connect 16 0 8 0;
#X connect 16 0 13 0;
#X connect 16 0 15 0;
#X connect 16 0 14 0;
#X connect 16 0 12 0;
#X connect 17 0 39 0;
#X connect 18 0 16 0;
#X connect 19 0 32 0;
#X connect 20 0 22 0;
#X connect 21 0 23 0;
#X connect 21 0 25 0;
#X connect 21 0 18 0;
#X connect 22 0 19 0;
#X connect 23 0 32 0;
#X connect 24 0 19 0;
#X connect 25 0 24 0;
#X connect 26 1 27 0;
#X connect 28 0 40 0;
#X connect 32 0 27 1;
#X connect 32 0 33 0;
#X connect 34 0 0 0;
#X connect 34 1 2 0;
#X connect 34 2 3 0;
#X connect 34 3 1 0;
#X connect 34 4 4 0;
#X connect 34 5 6 0;
#X connect 34 6 7 0;
#X connect 34 7 5 0;
#X connect 34 8 35 1;
#X connect 34 9 38 1;
#X connect 35 0 36 0;
#X connect 35 0 42 0;
#X connect 36 0 16 0;
#X connect 37 0 21 0;
#X connect 38 0 37 0;
#X connect 38 0 41 0;
#X connect 39 0 35 0;
#X connect 40 0 38 0;
#X connect 43 0 34 0;
#X connect 43 0 44 0;
#X connect 45 0 19 0;
#X restore 365 49 pd SeQ--7;
#N canvas 232 465 587 442 SeQ--8 0;
#X floatatom 21 116 5 0 0 0 - - -, f 5;
#X floatatom 124 116 5 0 0 0 - - -, f 5;
#X floatatom 56 116 5 0 0 0 - - -, f 5;
#X floatatom 90 116 5 0 0 0 - - -, f 5;
#X floatatom 158 116 5 0 0 0 - - -, f 5;
#X floatatom 262 116 5 0 0 0 - - -, f 5;
#X floatatom 193 116 5 0 0 0 - - -, f 5;
#X floatatom 227 116 5 0 0 0 - - -, f 5;
#X obj 122 200 int;
#X obj 12 200 int;
#X obj 77 200 int;
#X obj 38 200 int;
#X obj 261 200 int;
#X obj 151 200 int;
#X obj 216 200 int;
#X obj 187 200 int;
#X obj 293 185 bng 15 250 50 0 empty empty empty 17 7 0 10 -262144
-1 -1;
#X obj 305 36 inlet;
#X obj 517 167 delay 10 1 msec;
#X floatatom 215 327 5 0 0 0 - - -, f 5;
#X obj 217 272 loadbang;
#X obj 454 236 bng 15 250 50 0 empty empty empty 17 7 0 10 -262144
-1 -1;
#X floatatom 354 349 5 0 0 0 - - -, f 5;
#X obj 318 312 bng 15 250 50 0 empty empty empty 17 7 0 10 -262144
-1 -1;
#X obj 318 287 delay 20 1 msec;
#X obj 96 328 select 0;
#X obj 126 408 noteout 8;
#X obj 451 43 inlet;
#X text 303 17 note ON;
#X text 452 15 noteOFF;
#X text 310 181 sends_bang_with_midi_sync;
#X obj 275 376 int;
#X floatatom 275 399 5 0 0 0 - - -, f 5;
#X obj 81 76 unpack 0 0 0 0 0 0 0 0 0 0;
#X obj 316 106 int;
#X obj 298 148 select 1;
#X obj 426 126 select 1;
#X obj 447 94 int;
#X obj 309 67 bng 15 250 50 0 empty empty empty 17 7 0 10 -262144 -1
-1;
#X obj 448 66 bng 15 250 50 0 empty empty empty 17 7 0 10 -262144 -1
-1;
#X floatatom 505 122 5 0 0 0 - - -, f 5;
#X floatatom 352 124 5 0 0 0 - - -, f 5;
#X obj 84 39 receive chord_step__8;
#X msg 215 293 96;
#X obj 526 46 bng 15 250 50 0 empty empty empty 17 7 0 10 -262144 -1
-1;
#X msg 526 76 1;
#X obj 16 57 outlet;
#X obj 440 312 receive ctrl_midi_velocity;
#X connect 0 0 9 1;
#X connect 1 0 8 1;
#X connect 2 0 11 1;
#X connect 3 0 10 1;
#X connect 4 0 13 1;
#X connect 5 0 12 1;
#X connect 6 0 15 1;
#X connect 7 0 14 1;
#X connect 8 0 25 0;
#X connect 9 0 25 0;
#X connect 10 0 25 0;
#X connect 11 0 25 0;
#X connect 12 0 25 0;
#X connect 13 0 25 0;
#X connect 14 0 25 0;
#X connect 15 0 25 0;
#X connect 16 0 9 0;
#X connect 16 0 11 0;
#X connect 16 0 10 0;
#X connect 16 0 8 0;
#X connect 16 0 13 0;
#X connect 16 0 15 0;
#X connect 16 0 14 0;
#X connect 16 0 12 0;
#X connect 17 0 38 0;
#X connect 18 0 16 0;
#X connect 19 0 31 0;
#X connect 20 0 43 0;
#X connect 21 0 22 0;
#X connect 21 0 24 0;
#X connect 21 0 18 0;
#X connect 22 0 31 0;
#X connect 23 0 19 0;
#X connect 24 0 23 0;
#X connect 25 1 26 0;
#X connect 27 0 39 0;
#X connect 31 0 26 1;
#X connect 31 0 32 0;
#X connect 33 0 0 0;
#X connect 33 1 2 0;
#X connect 33 2 3 0;
#X connect 33 3 1 0;
#X connect 33 4 4 0;
#X connect 33 5 6 0;
#X connect 33 6 7 0;
#X connect 33 7 5 0;
#X connect 33 8 34 1;
#X connect 33 9 37 1;
#X connect 34 0 35 0;
#X connect 34 0 41 0;
#X connect 35 0 16 0;
#X connect 36 0 21 0;
#X connect 37 0 36 0;
#X connect 37 0 40 0;
#X connect 38 0 34 0;
#X connect 39 0 37 0;
#X connect 42 0 33 0;
#X connect 42 0 46 0;
#X connect 43 0 19 0;
#X connect 44 0 45 0;
#X connect 45 0 37 1;
#X connect 47 0 19 0;
#X restore 425 49 pd SeQ--8;
#N canvas 947 241 536 653 SeQ--9 0;
#X floatatom 21 116 5 0 0 0 - - -, f 5;
#X floatatom 124 116 5 0 0 0 - - -, f 5;
#X floatatom 56 116 5 0 0 0 - - -, f 5;
#X floatatom 90 116 5 0 0 0 - - -, f 5;
#X floatatom 158 116 5 0 0 0 - - -, f 5;
#X floatatom 262 116 5 0 0 0 - - -, f 5;
#X floatatom 193 116 5 0 0 0 - - -, f 5;
#X floatatom 227 116 5 0 0 0 - - -, f 5;
#X obj 122 200 int;
#X obj 12 200 int;
#X obj 77 200 int;
#X obj 38 200 int;
#X obj 261 200 int;
#X obj 151 200 int;
#X obj 216 200 int;
#X obj 187 200 int;
#X obj 293 185 bng 15 250 50 0 empty empty empty 17 7 0 10 -262144
-1 -1;
#X obj 305 36 inlet;
#X obj 517 167 delay 10 1 msec;
#X floatatom 215 327 5 0 0 0 - - -, f 5;
#X obj 217 272 loadbang;
#X obj 454 236 bng 15 250 50 0 empty empty empty 17 7 0 10 -262144
-1 -1;
#X floatatom 354 349 5 0 0 0 - - -, f 5;
#X obj 318 312 bng 15 250 50 0 empty empty empty 17 7 0 10 -262144
-1 -1;
#X obj 318 287 delay 20 1 msec;
#X obj 96 328 select 0;
#X obj 126 408 noteout 8;
#X obj 451 43 inlet;
#X text 303 17 note ON;
#X text 452 15 noteOFF;
#X text 310 181 sends_bang_with_midi_sync;
#X obj 275 376 int;
#X floatatom 275 399 5 0 0 0 - - -, f 5;
#X obj 81 76 unpack 0 0 0 0 0 0 0 0 0 0;
#X obj 316 106 int;
#X obj 298 148 select 1;
#X obj 426 126 select 1;
#X obj 447 94 int;
#X obj 309 67 bng 15 250 50 0 empty empty empty 17 7 0 10 -262144 -1
-1;
#X obj 448 66 bng 15 250 50 0 empty empty empty 17 7 0 10 -262144 -1
-1;
#X floatatom 505 122 5 0 0 0 - - -, f 5;
#X floatatom 352 124 5 0 0 0 - - -, f 5;
#X obj 84 39 receive chord_step__9;
#X msg 215 293 96;
#X obj 16 57 outlet;
#X obj 440 312 receive ctrl_midi_velocity;
#X connect 0 0 9 1;
#X connect 1 0 8 1;
#X connect 2 0 11 1;
#X connect 3 0 10 1;
#X connect 4 0 13 1;
#X connect 5 0 12 1;
#X connect 6 0 15 1;
#X connect 7 0 14 1;
#X connect 8 0 25 0;
#X connect 9 0 25 0;
#X connect 10 0 25 0;
#X connect 11 0 25 0;
#X connect 12 0 25 0;
#X connect 13 0 25 0;
#X connect 14 0 25 0;
#X connect 15 0 25 0;
#X connect 16 0 9 0;
#X connect 16 0 11 0;
#X connect 16 0 10 0;
#X connect 16 0 8 0;
#X connect 16 0 13 0;
#X connect 16 0 15 0;
#X connect 16 0 14 0;
#X connect 16 0 12 0;
#X connect 17 0 38 0;
#X connect 18 0 16 0;
#X connect 19 0 31 0;
#X connect 20 0 43 0;
#X connect 21 0 22 0;
#X connect 21 0 24 0;
#X connect 21 0 18 0;
#X connect 22 0 31 0;
#X connect 23 0 19 0;
#X connect 24 0 23 0;
#X connect 25 1 26 0;
#X connect 27 0 39 0;
#X connect 31 0 26 1;
#X connect 31 0 32 0;
#X connect 33 0 0 0;
#X connect 33 1 2 0;
#X connect 33 2 3 0;
#X connect 33 3 1 0;
#X connect 33 4 4 0;
#X connect 33 5 6 0;
#X connect 33 6 7 0;
#X connect 33 7 5 0;
#X connect 33 8 34 1;
#X connect 33 9 37 1;
#X connect 34 0 35 0;
#X connect 34 0 41 0;
#X connect 35 0 16 0;
#X connect 36 0 21 0;
#X connect 37 0 36 0;
#X connect 37 0 40 0;
#X connect 38 0 34 0;
#X connect 39 0 37 0;
#X connect 42 0 33 0;
#X connect 42 0 44 0;
#X connect 43 0 19 0;
#X connect 45 0 19 0;
#X restore 486 49 pd SeQ--9;
#N canvas 2040 457 948 646 SeQ-10 0;
#X floatatom 21 116 5 0 0 0 - - -, f 5;
#X floatatom 124 116 5 0 0 0 - - -, f 5;
#X floatatom 56 116 5 0 0 0 - - -, f 5;
#X floatatom 90 116 5 0 0 0 - - -, f 5;
#X floatatom 158 116 5 0 0 0 - - -, f 5;
#X floatatom 262 116 5 0 0 0 - - -, f 5;
#X floatatom 193 116 5 0 0 0 - - -, f 5;
#X floatatom 227 116 5 0 0 0 - - -, f 5;
#X obj 122 200 int;
#X obj 12 200 int;
#X obj 77 200 int;
#X obj 38 200 int;
#X obj 261 200 int;
#X obj 151 200 int;
#X obj 216 200 int;
#X obj 187 200 int;
#X obj 293 185 bng 15 250 50 0 empty empty empty 17 7 0 10 -262144
-1 -1;
#X obj 305 36 inlet;
#X obj 517 167 delay 10 1 msec;
#X floatatom 215 327 5 0 0 0 - - -, f 5;
#X obj 217 272 loadbang;
#X obj 454 236 bng 15 250 50 0 empty empty empty 17 7 0 10 -262144
-1 -1;
#X msg 215 293 64;
#X floatatom 354 349 5 0 0 0 - - -, f 5;
#X obj 318 312 bng 15 250 50 0 empty empty empty 17 7 0 10 -262144
-1 -1;
#X obj 318 287 delay 20 1 msec;
#X obj 96 328 select 0;
#X obj 126 408 noteout 8;
#X obj 451 43 inlet;
#X text 303 17 note ON;
#X text 452 15 noteOFF;
#X text 310 181 sends_bang_with_midi_sync;
#X obj 275 376 int;
#X floatatom 275 399 5 0 0 0 - - -, f 5;
#X obj 81 76 unpack 0 0 0 0 0 0 0 0 0 0;
#X obj 316 106 int;
#X obj 298 148 select 1;
#X obj 426 126 select 1;
#X obj 447 94 int;
#X obj 309 67 bng 15 250 50 0 empty empty empty 17 7 0 10 -262144 -1
-1;
#X obj 448 66 bng 15 250 50 0 empty empty empty 17 7 0 10 -262144 -1
-1;
#X floatatom 505 122 5 0 0 0 - - -, f 5;
#X floatatom 352 124 5 0 0 0 - - -, f 5;
#X obj 84 39 receive chord_step__10;
#X obj 16 57 outlet;
#X obj 440 312 receive ctrl_midi_velocity;
#X connect 0 0 9 1;
#X connect 1 0 8 1;
#X connect 2 0 11 1;
#X connect 3 0 10 1;
#X connect 4 0 13 1;
#X connect 5 0 12 1;
#X connect 6 0 15 1;
#X connect 7 0 14 1;
#X connect 8 0 26 0;
#X connect 9 0 26 0;
#X connect 10 0 26 0;
#X connect 11 0 26 0;
#X connect 12 0 26 0;
#X connect 13 0 26 0;
#X connect 14 0 26 0;
#X connect 15 0 26 0;
#X connect 16 0 9 0;
#X connect 16 0 11 0;
#X connect 16 0 10 0;
#X connect 16 0 8 0;
#X connect 16 0 13 0;
#X connect 16 0 15 0;
#X connect 16 0 14 0;
#X connect 16 0 12 0;
#X connect 17 0 39 0;
#X connect 18 0 16 0;
#X connect 19 0 32 0;
#X connect 20 0 22 0;
#X connect 21 0 23 0;
#X connect 21 0 25 0;
#X connect 21 0 18 0;
#X connect 22 0 19 0;
#X connect 23 0 32 0;
#X connect 24 0 19 0;
#X connect 25 0 24 0;
#X connect 26 1 27 0;
#X connect 28 0 40 0;
#X connect 32 0 27 1;
#X connect 32 0 33 0;
#X connect 34 0 0 0;
#X connect 34 1 2 0;
#X connect 34 2 3 0;
#X connect 34 3 1 0;
#X connect 34 4 4 0;
#X connect 34 5 6 0;
#X connect 34 6 7 0;
#X connect 34 7 5 0;
#X connect 34 8 35 1;
#X connect 34 9 38 1;
#X connect 35 0 36 0;
#X connect 35 0 42 0;
#X connect 36 0 16 0;
#X connect 37 0 21 0;
#X connect 38 0 37 0;
#X connect 38 0 41 0;
#X connect 39 0 35 0;
#X connect 40 0 38 0;
#X connect 43 0 34 0;
#X connect 43 0 44 0;
#X connect 45 0 19 0;
#X restore 544 49 pd SeQ-10;
#N canvas 2211 301 948 646 SeQ-11 0;
#X floatatom 21 116 5 0 0 0 - - -, f 5;
#X floatatom 124 116 5 0 0 0 - - -, f 5;
#X floatatom 56 116 5 0 0 0 - - -, f 5;
#X floatatom 90 116 5 0 0 0 - - -, f 5;
#X floatatom 158 116 5 0 0 0 - - -, f 5;
#X floatatom 262 116 5 0 0 0 - - -, f 5;
#X floatatom 193 116 5 0 0 0 - - -, f 5;
#X floatatom 227 116 5 0 0 0 - - -, f 5;
#X obj 122 200 int;
#X obj 12 200 int;
#X obj 77 200 int;
#X obj 38 200 int;
#X obj 261 200 int;
#X obj 151 200 int;
#X obj 216 200 int;
#X obj 187 200 int;
#X obj 293 185 bng 15 250 50 0 empty empty empty 17 7 0 10 -262144
-1 -1;
#X obj 305 36 inlet;
#X obj 517 167 delay 10 1 msec;
#X floatatom 215 327 5 0 0 0 - - -, f 5;
#X obj 217 272 loadbang;
#X obj 454 236 bng 15 250 50 0 empty empty empty 17 7 0 10 -262144
-1 -1;
#X msg 215 293 64;
#X floatatom 354 349 5 0 0 0 - - -, f 5;
#X obj 318 312 bng 15 250 50 0 empty empty empty 17 7 0 10 -262144
-1 -1;
#X obj 318 287 delay 20 1 msec;
#X obj 96 328 select 0;
#X obj 126 408 noteout 8;
#X obj 451 43 inlet;
#X text 303 17 note ON;
#X text 452 15 noteOFF;
#X text 310 181 sends_bang_with_midi_sync;
#X obj 275 376 int;
#X floatatom 275 399 5 0 0 0 - - -, f 5;
#X obj 81 76 unpack 0 0 0 0 0 0 0 0 0 0;
#X obj 316 106 int;
#X obj 298 148 select 1;
#X obj 426 126 select 1;
#X obj 447 94 int;
#X obj 309 67 bng 15 250 50 0 empty empty empty 17 7 0 10 -262144 -1
-1;
#X obj 448 66 bng 15 250 50 0 empty empty empty 17 7 0 10 -262144 -1
-1;
#X floatatom 505 122 5 0 0 0 - - -, f 5;
#X floatatom 352 124 5 0 0 0 - - -, f 5;
#X obj 84 39 receive chord_step__11;
#X obj 16 57 outlet;
#X obj 440 312 receive ctrl_midi_velocity;
#X connect 0 0 9 1;
#X connect 1 0 8 1;
#X connect 2 0 11 1;
#X connect 3 0 10 1;
#X connect 4 0 13 1;
#X connect 5 0 12 1;
#X connect 6 0 15 1;
#X connect 7 0 14 1;
#X connect 8 0 26 0;
#X connect 9 0 26 0;
#X connect 10 0 26 0;
#X connect 11 0 26 0;
#X connect 12 0 26 0;
#X connect 13 0 26 0;
#X connect 14 0 26 0;
#X connect 15 0 26 0;
#X connect 16 0 9 0;
#X connect 16 0 11 0;
#X connect 16 0 10 0;
#X connect 16 0 8 0;
#X connect 16 0 13 0;
#X connect 16 0 15 0;
#X connect 16 0 14 0;
#X connect 16 0 12 0;
#X connect 17 0 39 0;
#X connect 18 0 16 0;
#X connect 19 0 32 0;
#X connect 20 0 22 0;
#X connect 21 0 23 0;
#X connect 21 0 25 0;
#X connect 21 0 18 0;
#X connect 22 0 19 0;
#X connect 23 0 32 0;
#X connect 24 0 19 0;
#X connect 25 0 24 0;
#X connect 26 1 27 0;
#X connect 28 0 40 0;
#X connect 32 0 27 1;
#X connect 32 0 33 0;
#X connect 34 0 0 0;
#X connect 34 1 2 0;
#X connect 34 2 3 0;
#X connect 34 3 1 0;
#X connect 34 4 4 0;
#X connect 34 5 6 0;
#X connect 34 6 7 0;
#X connect 34 7 5 0;
#X connect 34 8 35 1;
#X connect 34 9 38 1;
#X connect 35 0 36 0;
#X connect 35 0 42 0;
#X connect 36 0 16 0;
#X connect 37 0 21 0;
#X connect 38 0 37 0;
#X connect 38 0 41 0;
#X connect 39 0 35 0;
#X connect 40 0 38 0;
#X connect 43 0 34 0;
#X connect 43 0 44 0;
#X connect 45 0 19 0;
#X restore 604 49 pd SeQ-11;
#N canvas 2827 406 560 453 SeQ-12 0;
#X floatatom 21 116 5 0 0 0 - - -, f 5;
#X floatatom 124 116 5 0 0 0 - - -, f 5;
#X floatatom 56 116 5 0 0 0 - - -, f 5;
#X floatatom 90 116 5 0 0 0 - - -, f 5;
#X floatatom 158 116 5 0 0 0 - - -, f 5;
#X floatatom 262 116 5 0 0 0 - - -, f 5;
#X floatatom 193 116 5 0 0 0 - - -, f 5;
#X floatatom 227 116 5 0 0 0 - - -, f 5;
#X obj 122 200 int;
#X obj 12 200 int;
#X obj 77 200 int;
#X obj 38 200 int;
#X obj 261 200 int;
#X obj 151 200 int;
#X obj 216 200 int;
#X obj 187 200 int;
#X obj 293 185 bng 15 250 50 0 empty empty empty 17 7 0 10 -262144
-1 -1;
#X obj 305 36 inlet;
#X obj 517 167 delay 10 1 msec;
#X floatatom 215 327 5 0 0 0 - - -, f 5;
#X obj 217 272 loadbang;
#X obj 454 236 bng 15 250 50 0 empty empty empty 17 7 0 10 -262144
-1 -1;
#X msg 215 293 64;
#X floatatom 354 349 5 0 0 0 - - -, f 5;
#X obj 318 312 bng 15 250 50 0 empty empty empty 17 7 0 10 -262144
-1 -1;
#X obj 318 287 delay 20 1 msec;
#X obj 96 328 select 0;
#X obj 126 408 noteout 8;
#X obj 451 43 inlet;
#X text 303 17 note ON;
#X text 452 15 noteOFF;
#X text 310 181 sends_bang_with_midi_sync;
#X obj 275 376 int;
#X floatatom 275 399 5 0 0 0 - - -, f 5;
#X obj 81 76 unpack 0 0 0 0 0 0 0 0 0 0;
#X obj 316 106 int;
#X obj 298 148 select 1;
#X obj 426 126 select 1;
#X obj 447 94 int;
#X obj 309 67 bng 15 250 50 0 empty empty empty 17 7 0 10 -262144 -1
-1;
#X obj 448 66 bng 15 250 50 0 empty empty empty 17 7 0 10 -262144 -1
-1;
#X floatatom 505 122 5 0 0 0 - - -, f 5;
#X floatatom 352 124 5 0 0 0 - - -, f 5;
#X obj 84 39 receive chord_step__12;
#X obj 16 57 outlet;
#X obj 440 312 receive ctrl_midi_velocity;
#X connect 0 0 9 1;
#X connect 1 0 8 1;
#X connect 2 0 11 1;
#X connect 3 0 10 1;
#X connect 4 0 13 1;
#X connect 5 0 12 1;
#X connect 6 0 15 1;
#X connect 7 0 14 1;
#X connect 8 0 26 0;
#X connect 9 0 26 0;
#X connect 10 0 26 0;
#X connect 11 0 26 0;
#X connect 12 0 26 0;
#X connect 13 0 26 0;
#X connect 14 0 26 0;
#X connect 15 0 26 0;
#X connect 16 0 9 0;
#X connect 16 0 11 0;
#X connect 16 0 10 0;
#X connect 16 0 8 0;
#X connect 16 0 13 0;
#X connect 16 0 15 0;
#X connect 16 0 14 0;
#X connect 16 0 12 0;
#X connect 17 0 39 0;
#X connect 18 0 16 0;
#X connect 19 0 32 0;
#X connect 20 0 22 0;
#X connect 21 0 23 0;
#X connect 21 0 25 0;
#X connect 21 0 18 0;
#X connect 22 0 19 0;
#X connect 23 0 32 0;
#X connect 24 0 19 0;
#X connect 25 0 24 0;
#X connect 26 1 27 0;
#X connect 28 0 40 0;
#X connect 32 0 27 1;
#X connect 32 0 33 0;
#X connect 34 0 0 0;
#X connect 34 1 2 0;
#X connect 34 2 3 0;
#X connect 34 3 1 0;
#X connect 34 4 4 0;
#X connect 34 5 6 0;
#X connect 34 6 7 0;
#X connect 34 7 5 0;
#X connect 34 8 35 1;
#X connect 34 9 38 1;
#X connect 35 0 36 0;
#X connect 35 0 42 0;
#X connect 36 0 16 0;
#X connect 37 0 21 0;
#X connect 38 0 37 0;
#X connect 38 0 41 0;
#X connect 39 0 35 0;
#X connect 40 0 38 0;
#X connect 43 0 34 0;
#X connect 43 0 44 0;
#X connect 45 0 19 0;
#X restore 664 49 pd SeQ-12;
#N canvas 1059 534 538 501 SeQ-13 0;
#X floatatom 21 116 5 0 0 0 - - -, f 5;
#X floatatom 124 116 5 0 0 0 - - -, f 5;
#X floatatom 56 116 5 0 0 0 - - -, f 5;
#X floatatom 90 116 5 0 0 0 - - -, f 5;
#X floatatom 158 116 5 0 0 0 - - -, f 5;
#X floatatom 262 116 5 0 0 0 - - -, f 5;
#X floatatom 193 116 5 0 0 0 - - -, f 5;
#X floatatom 227 116 5 0 0 0 - - -, f 5;
#X obj 122 200 int;
#X obj 12 200 int;
#X obj 77 200 int;
#X obj 38 200 int;
#X obj 261 200 int;
#X obj 151 200 int;
#X obj 216 200 int;
#X obj 187 200 int;
#X obj 293 185 bng 15 250 50 0 empty empty empty 17 7 0 10 -262144
-1 -1;
#X obj 305 36 inlet;
#X obj 517 167 delay 10 1 msec;
#X floatatom 215 327 5 0 0 0 - - -, f 5;
#X obj 217 272 loadbang;
#X obj 454 236 bng 15 250 50 0 empty empty empty 17 7 0 10 -262144
-1 -1;
#X floatatom 354 349 5 0 0 0 - - -, f 5;
#X obj 318 312 bng 15 250 50 0 empty empty empty 17 7 0 10 -262144
-1 -1;
#X obj 318 287 delay 20 1 msec;
#X obj 96 328 select 0;
#X obj 126 408 noteout 8;
#X obj 451 43 inlet;
#X text 303 17 note ON;
#X text 452 15 noteOFF;
#X text 310 181 sends_bang_with_midi_sync;
#X obj 275 376 int;
#X floatatom 275 399 5 0 0 0 - - -, f 5;
#X obj 81 76 unpack 0 0 0 0 0 0 0 0 0 0;
#X obj 316 106 int;
#X obj 298 148 select 1;
#X obj 426 126 select 1;
#X obj 447 94 int;
#X obj 309 67 bng 15 250 50 0 empty empty empty 17 7 0 10 -262144 -1
-1;
#X obj 448 66 bng 15 250 50 0 empty empty empty 17 7 0 10 -262144 -1
-1;
#X floatatom 505 122 5 0 0 0 - - -, f 5;
#X floatatom 352 124 5 0 0 0 - - -, f 5;
#X obj 84 39 receive chord_step__13;
#X msg 215 293 96;
#X obj 16 57 outlet;
#X obj 440 312 receive ctrl_midi_velocity;
#X connect 0 0 9 1;
#X connect 1 0 8 1;
#X connect 2 0 11 1;
#X connect 3 0 10 1;
#X connect 4 0 13 1;
#X connect 5 0 12 1;
#X connect 6 0 15 1;
#X connect 7 0 14 1;
#X connect 8 0 25 0;
#X connect 9 0 25 0;
#X connect 10 0 25 0;
#X connect 11 0 25 0;
#X connect 12 0 25 0;
#X connect 13 0 25 0;
#X connect 14 0 25 0;
#X connect 15 0 25 0;
#X connect 16 0 9 0;
#X connect 16 0 11 0;
#X connect 16 0 10 0;
#X connect 16 0 8 0;
#X connect 16 0 13 0;
#X connect 16 0 15 0;
#X connect 16 0 14 0;
#X connect 16 0 12 0;
#X connect 17 0 38 0;
#X connect 18 0 16 0;
#X connect 19 0 31 0;
#X connect 20 0 43 0;
#X connect 21 0 22 0;
#X connect 21 0 24 0;
#X connect 21 0 18 0;
#X connect 22 0 31 0;
#X connect 23 0 19 0;
#X connect 24 0 23 0;
#X connect 25 1 26 0;
#X connect 27 0 39 0;
#X connect 31 0 26 1;
#X connect 31 0 32 0;
#X connect 33 0 0 0;
#X connect 33 1 2 0;
#X connect 33 2 3 0;
#X connect 33 3 1 0;
#X connect 33 4 4 0;
#X connect 33 5 6 0;
#X connect 33 6 7 0;
#X connect 33 7 5 0;
#X connect 33 8 34 1;
#X connect 33 9 37 1;
#X connect 34 0 35 0;
#X connect 34 0 41 0;
#X connect 35 0 16 0;
#X connect 36 0 21 0;
#X connect 37 0 36 0;
#X connect 37 0 40 0;
#X connect 38 0 34 0;
#X connect 39 0 37 0;
#X connect 42 0 33 0;
#X connect 42 0 44 0;
#X connect 43 0 19 0;
#X connect 45 0 19 0;
#X restore 725 49 pd SeQ-13;
#N canvas 2266 317 948 646 SeQ-14 0;
#X floatatom 21 116 5 0 0 0 - - -, f 5;
#X floatatom 124 116 5 0 0 0 - - -, f 5;
#X floatatom 56 116 5 0 0 0 - - -, f 5;
#X floatatom 90 116 5 0 0 0 - - -, f 5;
#X floatatom 158 116 5 0 0 0 - - -, f 5;
#X floatatom 262 116 5 0 0 0 - - -, f 5;
#X floatatom 193 116 5 0 0 0 - - -, f 5;
#X floatatom 227 116 5 0 0 0 - - -, f 5;
#X obj 122 200 int;
#X obj 12 200 int;
#X obj 77 200 int;
#X obj 38 200 int;
#X obj 261 200 int;
#X obj 151 200 int;
#X obj 216 200 int;
#X obj 187 200 int;
#X obj 293 185 bng 15 250 50 0 empty empty empty 17 7 0 10 -262144
-1 -1;
#X obj 305 36 inlet;
#X obj 517 167 delay 10 1 msec;
#X floatatom 215 327 5 0 0 0 - - -, f 5;
#X obj 217 272 loadbang;
#X obj 454 236 bng 15 250 50 0 empty empty empty 17 7 0 10 -262144
-1 -1;
#X msg 215 293 64;
#X floatatom 354 349 5 0 0 0 - - -, f 5;
#X obj 318 312 bng 15 250 50 0 empty empty empty 17 7 0 10 -262144
-1 -1;
#X obj 318 287 delay 20 1 msec;
#X obj 96 328 select 0;
#X obj 126 408 noteout 8;
#X obj 451 43 inlet;
#X text 303 17 note ON;
#X text 452 15 noteOFF;
#X text 310 181 sends_bang_with_midi_sync;
#X obj 275 376 int;
#X floatatom 275 399 5 0 0 0 - - -, f 5;
#X obj 81 76 unpack 0 0 0 0 0 0 0 0 0 0;
#X obj 316 106 int;
#X obj 298 148 select 1;
#X obj 426 126 select 1;
#X obj 447 94 int;
#X obj 309 67 bng 15 250 50 0 empty empty empty 17 7 0 10 -262144 -1
-1;
#X obj 448 66 bng 15 250 50 0 empty empty empty 17 7 0 10 -262144 -1
-1;
#X floatatom 505 122 5 0 0 0 - - -, f 5;
#X floatatom 352 124 5 0 0 0 - - -, f 5;
#X obj 84 39 receive chord_step__14;
#X obj 16 57 outlet;
#X obj 440 312 receive ctrl_midi_velocity;
#X connect 0 0 9 1;
#X connect 1 0 8 1;
#X connect 2 0 11 1;
#X connect 3 0 10 1;
#X connect 4 0 13 1;
#X connect 5 0 12 1;
#X connect 6 0 15 1;
#X connect 7 0 14 1;
#X connect 8 0 26 0;
#X connect 9 0 26 0;
#X connect 10 0 26 0;
#X connect 11 0 26 0;
#X connect 12 0 26 0;
#X connect 13 0 26 0;
#X connect 14 0 26 0;
#X connect 15 0 26 0;
#X connect 16 0 9 0;
#X connect 16 0 11 0;
#X connect 16 0 10 0;
#X connect 16 0 8 0;
#X connect 16 0 13 0;
#X connect 16 0 15 0;
#X connect 16 0 14 0;
#X connect 16 0 12 0;
#X connect 17 0 39 0;
#X connect 18 0 16 0;
#X connect 19 0 32 0;
#X connect 20 0 22 0;
#X connect 21 0 23 0;
#X connect 21 0 25 0;
#X connect 21 0 18 0;
#X connect 22 0 19 0;
#X connect 23 0 32 0;
#X connect 24 0 19 0;
#X connect 25 0 24 0;
#X connect 26 1 27 0;
#X connect 28 0 40 0;
#X connect 32 0 27 1;
#X connect 32 0 33 0;
#X connect 34 0 0 0;
#X connect 34 1 2 0;
#X connect 34 2 3 0;
#X connect 34 3 1 0;
#X connect 34 4 4 0;
#X connect 34 5 6 0;
#X connect 34 6 7 0;
#X connect 34 7 5 0;
#X connect 34 8 35 1;
#X connect 34 9 38 1;
#X connect 35 0 36 0;
#X connect 35 0 42 0;
#X connect 36 0 16 0;
#X connect 37 0 21 0;
#X connect 38 0 37 0;
#X connect 38 0 41 0;
#X connect 39 0 35 0;
#X connect 40 0 38 0;
#X connect 43 0 34 0;
#X connect 43 0 44 0;
#X connect 45 0 19 0;
#X restore 786 49 pd SeQ-14;
#N canvas 2052 331 948 646 SeQ-15 0;
#X floatatom 21 116 5 0 0 0 - - -, f 5;
#X floatatom 124 116 5 0 0 0 - - -, f 5;
#X floatatom 56 116 5 0 0 0 - - -, f 5;
#X floatatom 90 116 5 0 0 0 - - -, f 5;
#X floatatom 158 116 5 0 0 0 - - -, f 5;
#X floatatom 262 116 5 0 0 0 - - -, f 5;
#X floatatom 193 116 5 0 0 0 - - -, f 5;
#X floatatom 227 116 5 0 0 0 - - -, f 5;
#X obj 122 200 int;
#X obj 12 200 int;
#X obj 77 200 int;
#X obj 38 200 int;
#X obj 261 200 int;
#X obj 151 200 int;
#X obj 216 200 int;
#X obj 187 200 int;
#X obj 293 185 bng 15 250 50 0 empty empty empty 17 7 0 10 -262144
-1 -1;
#X obj 305 36 inlet;
#X obj 517 167 delay 10 1 msec;
#X floatatom 215 327 5 0 0 0 - - -, f 5;
#X obj 217 272 loadbang;
#X obj 454 236 bng 15 250 50 0 empty empty empty 17 7 0 10 -262144
-1 -1;
#X msg 215 293 64;
#X floatatom 354 349 5 0 0 0 - - -, f 5;
#X obj 318 312 bng 15 250 50 0 empty empty empty 17 7 0 10 -262144
-1 -1;
#X obj 318 287 delay 20 1 msec;
#X obj 96 328 select 0;
#X obj 126 408 noteout 8;
#X obj 451 43 inlet;
#X text 303 17 note ON;
#X text 452 15 noteOFF;
#X text 310 181 sends_bang_with_midi_sync;
#X obj 275 376 int;
#X floatatom 275 399 5 0 0 0 - - -, f 5;
#X obj 81 76 unpack 0 0 0 0 0 0 0 0 0 0;
#X obj 316 106 int;
#X obj 298 148 select 1;
#X obj 426 126 select 1;
#X obj 447 94 int;
#X obj 309 67 bng 15 250 50 0 empty empty empty 17 7 0 10 -262144 -1
-1;
#X obj 448 66 bng 15 250 50 0 empty empty empty 17 7 0 10 -262144 -1
-1;
#X floatatom 505 122 5 0 0 0 - - -, f 5;
#X floatatom 352 124 5 0 0 0 - - -, f 5;
#X obj 84 39 receive chord_step__15;
#X obj 16 57 outlet;
#X obj 440 312 receive ctrl_midi_velocity;
#X connect 0 0 9 1;
#X connect 1 0 8 1;
#X connect 2 0 11 1;
#X connect 3 0 10 1;
#X connect 4 0 13 1;
#X connect 5 0 12 1;
#X connect 6 0 15 1;
#X connect 7 0 14 1;
#X connect 8 0 26 0;
#X connect 9 0 26 0;
#X connect 10 0 26 0;
#X connect 11 0 26 0;
#X connect 12 0 26 0;
#X connect 13 0 26 0;
#X connect 14 0 26 0;
#X connect 15 0 26 0;
#X connect 16 0 9 0;
#X connect 16 0 11 0;
#X connect 16 0 10 0;
#X connect 16 0 8 0;
#X connect 16 0 13 0;
#X connect 16 0 15 0;
#X connect 16 0 14 0;
#X connect 16 0 12 0;
#X connect 17 0 39 0;
#X connect 18 0 16 0;
#X connect 19 0 32 0;
#X connect 20 0 22 0;
#X connect 21 0 23 0;
#X connect 21 0 25 0;
#X connect 21 0 18 0;
#X connect 22 0 19 0;
#X connect 23 0 32 0;
#X connect 24 0 19 0;
#X connect 25 0 24 0;
#X connect 26 1 27 0;
#X connect 28 0 40 0;
#X connect 32 0 27 1;
#X connect 32 0 33 0;
#X connect 34 0 0 0;
#X connect 34 1 2 0;
#X connect 34 2 3 0;
#X connect 34 3 1 0;
#X connect 34 4 4 0;
#X connect 34 5 6 0;
#X connect 34 6 7 0;
#X connect 34 7 5 0;
#X connect 34 8 35 1;
#X connect 34 9 38 1;
#X connect 35 0 36 0;
#X connect 35 0 42 0;
#X connect 36 0 16 0;
#X connect 37 0 21 0;
#X connect 38 0 37 0;
#X connect 38 0 41 0;
#X connect 39 0 35 0;
#X connect 40 0 38 0;
#X connect 43 0 34 0;
#X connect 43 0 44 0;
#X connect 45 0 19 0;
#X restore 847 49 pd SeQ-15;
#N canvas 924 301 517 387 SeQ-16 0;
#X floatatom 21 116 5 0 0 0 - - -, f 5;
#X floatatom 124 116 5 0 0 0 - - -, f 5;
#X floatatom 56 116 5 0 0 0 - - -, f 5;
#X floatatom 90 116 5 0 0 0 - - -, f 5;
#X floatatom 158 116 5 0 0 0 - - -, f 5;
#X floatatom 262 116 5 0 0 0 - - -, f 5;
#X floatatom 193 116 5 0 0 0 - - -, f 5;
#X floatatom 227 116 5 0 0 0 - - -, f 5;
#X obj 122 200 int;
#X obj 12 200 int;
#X obj 77 200 int;
#X obj 38 200 int;
#X obj 261 200 int;
#X obj 151 200 int;
#X obj 216 200 int;
#X obj 187 200 int;
#X obj 293 185 bng 15 250 50 0 empty empty empty 17 7 0 10 -262144
-1 -1;
#X obj 305 36 inlet;
#X obj 517 167 delay 10 1 msec;
#X floatatom 215 327 5 0 0 0 - - -, f 5;
#X obj 217 272 loadbang;
#X obj 454 236 bng 15 250 50 0 empty empty empty 17 7 0 10 -262144
-1 -1;
#X msg 215 293 64;
#X floatatom 354 349 5 0 0 0 - - -, f 5;
#X obj 318 312 bng 15 250 50 0 empty empty empty 17 7 0 10 -262144
-1 -1;
#X obj 318 287 delay 20 1 msec;
#X obj 96 328 select 0;
#X obj 126 408 noteout 8;
#X obj 451 43 inlet;
#X text 303 17 note ON;
#X text 452 15 noteOFF;
#X text 310 181 sends_bang_with_midi_sync;
#X obj 275 376 int;
#X floatatom 275 399 5 0 0 0 - - -, f 5;
#X obj 99 76 unpack 0 0 0 0 0 0 0 0 0 0;
#X obj 316 106 int;
#X obj 298 148 select 1;
#X obj 426 126 select 1;
#X obj 447 94 int;
#X obj 309 67 bng 15 250 50 0 empty empty empty 17 7 0 10 -262144 -1
-1;
#X obj 448 66 bng 15 250 50 0 empty empty empty 17 7 0 10 -262144 -1
-1;
#X floatatom 505 122 5 0 0 0 - - -, f 5;
#X floatatom 352 124 5 0 0 0 - - -, f 5;
#X obj 84 39 receive chord_step__16;
#X obj 16 57 outlet;
#X obj 440 312 receive ctrl_midi_velocity;
#X connect 0 0 9 1;
#X connect 1 0 8 1;
#X connect 2 0 11 1;
#X connect 3 0 10 1;
#X connect 4 0 13 1;
#X connect 5 0 12 1;
#X connect 6 0 15 1;
#X connect 7 0 14 1;
#X connect 8 0 26 0;
#X connect 9 0 26 0;
#X connect 10 0 26 0;
#X connect 11 0 26 0;
#X connect 12 0 26 0;
#X connect 13 0 26 0;
#X connect 14 0 26 0;
#X connect 15 0 26 0;
#X connect 16 0 9 0;
#X connect 16 0 11 0;
#X connect 16 0 10 0;
#X connect 16 0 8 0;
#X connect 16 0 13 0;
#X connect 16 0 15 0;
#X connect 16 0 14 0;
#X connect 16 0 12 0;
#X connect 17 0 39 0;
#X connect 18 0 16 0;
#X connect 19 0 32 0;
#X connect 20 0 22 0;
#X connect 21 0 23 0;
#X connect 21 0 25 0;
#X connect 21 0 18 0;
#X connect 22 0 19 0;
#X connect 23 0 32 0;
#X connect 24 0 19 0;
#X connect 25 0 24 0;
#X connect 26 1 27 0;
#X connect 28 0 40 0;
#X connect 32 0 27 1;
#X connect 32 0 33 0;
#X connect 34 0 0 0;
#X connect 34 1 2 0;
#X connect 34 2 3 0;
#X connect 34 3 1 0;
#X connect 34 4 4 0;
#X connect 34 5 6 0;
#X connect 34 6 7 0;
#X connect 34 7 5 0;
#X connect 34 8 35 1;
#X connect 34 9 38 1;
#X connect 35 0 36 0;
#X connect 35 0 42 0;
#X connect 36 0 16 0;
#X connect 37 0 21 0;
#X connect 38 0 37 0;
#X connect 38 0 41 0;
#X connect 39 0 35 0;
#X connect 40 0 38 0;
#X connect 43 0 34 0;
#X connect 43 0 44 0;
#X connect 45 0 19 0;
#X restore 907 49 pd SeQ-16;
#X obj 175 31 select 0 1 2 3 4 5 6 7 8 9 10 11 12 13 14 15;
#N canvas 803 241 794 386 SeQ--2 0;
#X floatatom 21 116 5 0 0 0 - - -, f 5;
#X floatatom 124 116 5 0 0 0 - - -, f 5;
#X floatatom 56 116 5 0 0 0 - - -, f 5;
#X floatatom 90 116 5 0 0 0 - - -, f 5;
#X floatatom 158 116 5 0 0 0 - - -, f 5;
#X floatatom 262 116 5 0 0 0 - - -, f 5;
#X floatatom 193 116 5 0 0 0 - - -, f 5;
#X floatatom 227 116 5 0 0 0 - - -, f 5;
#X obj 122 200 int;
#X obj 12 200 int;
#X obj 77 200 int;
#X obj 38 200 int;
#X obj 261 200 int;
#X obj 151 200 int;
#X obj 216 200 int;
#X obj 187 200 int;
#X obj 293 185 bng 15 250 50 0 empty empty empty 17 7 0 10 -262144
-1 -1;
#X obj 305 36 inlet;
#X obj 517 167 delay 10 1 msec;
#X floatatom 215 327 5 0 0 0 - - -, f 5;
#X obj 217 272 loadbang;
#X obj 454 236 bng 15 250 50 0 empty empty empty 17 7 0 10 -262144
-1 -1;
#X msg 215 293 64;
#X floatatom 354 349 5 0 0 0 - - -, f 5;
#X obj 318 312 bng 15 250 50 0 empty empty empty 17 7 0 10 -262144
-1 -1;
#X obj 318 287 delay 20 1 msec;
#X obj 96 328 select 0;
#X obj 126 408 noteout 8;
#X obj 451 43 inlet;
#X text 303 17 note ON;
#X text 452 15 noteOFF;
#X text 310 181 sends_bang_with_midi_sync;
#X obj 275 376 int;
#X floatatom 275 399 5 0 0 0 - - -, f 5;
#X obj 81 76 unpack 0 0 0 0 0 0 0 0 0 0;
#X obj 316 106 int;
#X obj 298 148 select 1;
#X obj 426 126 select 1;
#X obj 447 94 int;
#X obj 309 67 bng 15 250 50 0 empty empty empty 17 7 0 10 -262144 -1
-1;
#X obj 448 66 bng 15 250 50 0 empty empty empty 17 7 0 10 -262144 -1
-1;
#X floatatom 566 132 5 0 0 0 - - -, f 5;
#X floatatom 365 124 5 0 0 0 - - -, f 5;
#X obj 85 39 receive chord_step__2;
#X obj 19 66 outlet;
#X obj 429 325 receive ctrl_midi_velocity;
#X connect 0 0 9 1;
#X connect 1 0 8 1;
#X connect 2 0 11 1;
#X connect 3 0 10 1;
#X connect 4 0 13 1;
#X connect 5 0 12 1;
#X connect 6 0 15 1;
#X connect 7 0 14 1;
#X connect 8 0 26 0;
#X connect 9 0 26 0;
#X connect 10 0 26 0;
#X connect 11 0 26 0;
#X connect 12 0 26 0;
#X connect 13 0 26 0;
#X connect 14 0 26 0;
#X connect 15 0 26 0;
#X connect 16 0 9 0;
#X connect 16 0 11 0;
#X connect 16 0 10 0;
#X connect 16 0 8 0;
#X connect 16 0 13 0;
#X connect 16 0 15 0;
#X connect 16 0 14 0;
#X connect 16 0 12 0;
#X connect 17 0 39 0;
#X connect 18 0 16 0;
#X connect 19 0 32 0;
#X connect 20 0 22 0;
#X connect 21 0 23 0;
#X connect 21 0 25 0;
#X connect 21 0 18 0;
#X connect 22 0 19 0;
#X connect 23 0 32 0;
#X connect 24 0 19 0;
#X connect 25 0 24 0;
#X connect 26 1 27 0;
#X connect 28 0 40 0;
#X connect 32 0 27 1;
#X connect 32 0 33 0;
#X connect 34 0 0 0;
#X connect 34 1 2 0;
#X connect 34 2 3 0;
#X connect 34 3 1 0;
#X connect 34 4 4 0;
#X connect 34 5 6 0;
#X connect 34 6 7 0;
#X connect 34 7 5 0;
#X connect 34 8 35 1;
#X connect 34 8 42 0;
#X connect 34 9 38 1;
#X connect 34 9 41 0;
#X connect 35 0 36 0;
#X connect 36 0 16 0;
#X connect 37 0 21 0;
#X connect 38 0 37 0;
#X connect 39 0 35 0;
#X connect 40 0 38 0;
#X connect 43 0 34 0;
#X connect 43 0 44 0;
#X connect 45 0 19 0;
#X restore 65 49 pd SeQ--2;
#N canvas 1789 345 712 473 noteOFFforsteps--------- 1;
#X floatatom 249 108 5 0 0 0 - - -, f 5;
#X obj 87 92 bng 15 250 50 0 empty noteOFF_bang_@_22_ticks noteOFF_bang_@_22_ticks
17 7 0 10 -262144 -1 -1;
#X obj 87 154 select 0 1 2 3 4 5 6 7 8 9 10 11 12 13 14 15;
#X obj 249 68 inlet;
#X obj 87 125 int;
#X obj 55 217 outlet;
#X obj 13 217 outlet;
#X obj 139 217 outlet;
#X obj 97 217 outlet;
#X obj 223 217 outlet;
#X obj 181 217 outlet;
#X obj 307 217 outlet;
#X obj 265 217 outlet;
#X obj 391 217 outlet;
#X obj 349 217 outlet;
#X obj 475 217 outlet;
#X obj 433 217 outlet;
#X obj 559 217 outlet;
#X obj 517 217 outlet;
#X obj 643 217 outlet;
#X obj 601 217 outlet;
#X obj 18 154 print;
#N canvas 2613 647 450 300 sendAllNoteOFF 0;
#X obj 136 239 ctlout 123 8;
#X floatatom 136 210 5 0 0 0 - - -, f 5;
#X obj 204 8 bng 15 250 50 0 empty MIDI_STOP MIDI_STOP 17 7 0 10 -262144
-1 -1;
#X obj 205 50 until;
#X obj 242 87 + 1;
#X obj 205 127 + 1;
#X obj 205 88 int;
#X obj 242 107 mod 16;
#X obj 136 191 bng 15 250 50 0 empty empty empty 17 7 0 10 -262144
-1 -1;
#X msg 205 28 16;
#X obj 40 145 select 16;
#X obj 40 195 bng 15 250 50 0 empty empty empty 17 7 0 10 -262144 -1
-1;
#X obj 40 169 delay 55 1 msec;
#X obj 292 193 outlet;
#X obj 237 194 outlet;
#X connect 1 0 0 0;
#X connect 2 0 9 0;
#X connect 3 0 6 0;
#X connect 4 0 7 0;
#X connect 5 0 0 2;
#X connect 5 0 10 0;
#X connect 5 0 8 0;
#X connect 5 0 14 0;
#X connect 6 0 4 0;
#X connect 6 0 5 0;
#X connect 6 0 13 0;
#X connect 7 0 6 1;
#X connect 8 0 1 0;
#X connect 9 0 3 0;
#X connect 10 0 12 0;
#X connect 12 0 11 0;
#X restore 87 53 pd sendAllNoteOFF;
#X connect 0 0 4 1;
#X connect 1 0 4 0;
#X connect 2 0 6 0;
#X connect 2 1 5 0;
#X connect 2 2 8 0;
#X connect 2 3 7 0;
#X connect 2 4 10 0;
#X connect 2 5 9 0;
#X connect 2 6 12 0;
#X connect 2 7 11 0;
#X connect 2 8 14 0;
#X connect 2 9 13 0;
#X connect 2 10 16 0;
#X connect 2 11 15 0;
#X connect 2 12 18 0;
#X connect 2 13 17 0;
#X connect 2 14 20 0;
#X connect 2 15 19 0;
#X connect 3 0 0 0;
#X connect 4 0 2 0;
#X connect 4 0 21 0;
#X connect 22 0 1 0;
#X connect 22 1 4 1;
#X restore 5 31 pd noteOFFforsteps---------;
#X connect 0 0 18 0;
#X connect 0 0 16 0;
#X connect 16 0 1 0;
#X connect 16 1 17 0;
#X connect 16 2 2 0;
#X connect 16 3 3 0;
#X connect 16 4 4 0;
#X connect 16 5 5 0;
#X connect 16 6 6 0;
#X connect 16 7 7 0;
#X connect 16 8 8 0;
#X connect 16 9 9 0;
#X connect 16 10 10 0;
#X connect 16 11 11 0;
#X connect 16 12 12 0;
#X connect 16 13 13 0;
#X connect 16 14 14 0;
#X connect 16 15 15 0;
#X connect 18 0 1 1;
#X connect 18 1 17 1;
#X connect 18 2 2 1;
#X connect 18 3 3 1;
#X connect 18 4 4 1;
#X connect 18 5 5 1;
#X connect 18 6 6 1;
#X connect 18 7 7 1;
#X connect 18 8 8 1;
#X connect 18 9 9 1;
#X connect 18 10 10 1;
#X connect 18 11 11 1;
#X connect 18 12 12 1;
#X connect 18 13 13 1;
#X connect 18 14 14 1;
#X connect 18 15 15 1;
#X restore 171 2 pd ChordBank;
#N canvas 1603 540 954 221 midiIn 0;
#X floatatom 184 72 5 0 0 2 MIDI_note-to-chord MIDI_note-to-chord -
, f 5;
#X floatatom 332 77 5 0 0 2 MIDI_for_duration MIDI_for_duration -,
f 5;
#X obj 170 189 bng 15 250 50 0 start_chord_entry_mode empty start_chord_entry_mode
17 7 0 10 -262144 -1 -1;
#X obj 170 150 select 0 1;
#X floatatom 170 133 5 0 0 1 Current_Mode Current_Entry_Mode -, f
5;
#X obj 161 7 bng 15 250 50 0 empty noteON-Count noteON-Count 17 7 0
10 -262144 -1 -1;
#X obj 161 24 bng 15 250 50 0 empty noteOFF-count noteOFF-count 17
7 0 10 -262144 -1 -1;
#X obj 267 7 bng 15 250 50 0 empty reset_ON_/_OFF_count reset_ON/OFF_count
17 7 0 10 -262144 -1 -1;
#N canvas 2402 506 1043 445 midirealtimeinpatch 0;
#X obj 185 219 float;
#X obj 234 219 + 1;
#X obj 347 174 bng 15 50 10 0 empty empty empty 20 9 0 10 -262144 -1
-1;
#X floatatom 185 250 5 0 0 1 total_steps - -, f 5;
#X obj 178 144 bng 15 250 50 0 reset_steps/ticks empty reset_steps/ticks
-105 9 0 10 -262144 -1 -1;
#X floatatom 145 202 5 0 0 0 - - -, f 5;
#X obj 185 303 outlet;
#X obj 136 12 midirealtimein;
#X obj 136 40 select 248 250 252;
#N canvas 2551 209 793 274 midiclockcounter 0;
#X obj 23 31 inlet;
#X obj 151 186 outlet;
#X obj 86 70 int 1;
#X obj 151 70 + 1;
#X floatatom 8 133 5 0 0 3 counts_MIDI_clock_ticks - -, f 5;
#X floatatom 151 131 5 0 0 1 24_ticks_=_Quarter_note - -, f 5;
#X msg 86 33 1;
#X obj 186 35 bng 15 250 50 0 empty empty reset_counter_to_zero_(before_mod)
17 7 0 10 -262144 -1 -1;
#X floatatom 186 53 5 0 0 0 - - -, f 5;
#X obj 151 91 % 24;
#X obj 152 7 bng 15 250 50 0 empty empty midi_clock_test_bang 17 7
0 10 -262144 -1 -1;
#X obj 254 196 outlet;
#X text 308 196 for note offs;
#X text 46 204 move PLAYseq to next step;
#X obj 151 165 select 0 22;
#X obj 356 83 bng 15 250 50 0 empty reset_steps/ticks reset_steps/ticks
-105 9 0 10 -262144 -1 -1;
#X connect 0 0 2 0;
#X connect 2 0 3 0;
#X connect 2 0 4 0;
#X connect 3 0 2 1;
#X connect 3 0 9 0;
#X connect 5 0 14 0;
#X connect 6 0 2 0;
#X connect 7 0 8 0;
#X connect 8 0 2 0;
#X connect 9 0 5 0;
#X connect 10 0 2 0;
#X connect 14 0 1 0;
#X connect 14 1 11 0;
#X connect 15 0 8 0;
#X restore 13 58 pd midiclockcounter;
#X text 455 121 notein ch4 > select 102 > inlet;
#X floatatom 184 82 5 0 0 0 - - -, f 5;
#X floatatom 228 83 5 0 0 0 - - -, f 5;
#X text 371 168 Move PLAYseq ahead one step (press NoteOn(102) on DJ2GO)
;
#X obj 12 166 bng 15 250 50 0 noteOFF_bang_@_22_ticks empty noteOFF_bang_@_22_ticks
17 7 0 10 -262144 -1 -1;
#X obj 185 283 mod 16;
#X obj 428 99 bng 15 250 50 0 empty Move_write_head Move_write_head
0 -10 0 10 -262144 -1 -1;
#X obj 276 109 bng 15 250 50 0 empty empty empty 17 7 0 10 -262144
-1 -1;
#X msg 276 129 2;
#X floatatom 276 152 5 0 0 0 - - -, f 5;
#X obj 323 89 bng 15 250 50 0 MIDI_STOP empty MIDI_STOP 17 7 0 10 -262144
-1 -1;
#X connect 0 0 1 0;
#X connect 0 0 3 0;
#X connect 1 0 0 1;
#X connect 2 0 0 0;
#X connect 3 0 15 0;
#X connect 4 0 5 0;
#X connect 5 0 0 0;
#X connect 7 0 8 0;
#X connect 8 0 9 0;
#X connect 8 0 11 0;
#X connect 8 1 4 0;
#X connect 8 1 12 0;
#X connect 8 2 20 0;
#X connect 9 0 2 0;
#X connect 9 1 14 0;
#X connect 12 0 17 0;
#X connect 15 0 6 0;
#X connect 16 0 2 0;
#X connect 17 0 18 0;
#X connect 18 0 19 0;
#X restore 2 105 pd midirealtimeinpatch;
#X floatatom 2 123 5 0 0 1 playseq_step_(0-15) - playseq_step_(0-15)
, f 5;
#N canvas 1897 731 450 300 midiin-ch4 0;
#X obj 42 14 notein 4;
#X obj 42 42 stripnote;
#X obj 42 94 select 60 66 69 102;
#X obj 42 205 bng 15 250 50 0 reset_ON_/_OFF_count empty reset_counters
17 7 0 10 -262144 -1 -1;
#X obj 69 174 bng 15 250 50 0 empty empty depricated(n66) 17 7 0 10
-262144 -1 -1;
#X obj 97 147 bng 15 250 50 0 Switch_Entry_Mode empty Switch_Entry_Mode
17 7 0 10 -262144 -1 -1;
#X obj 125 125 bng 15 250 50 0 Move_write_head empty Move_write_head
17 7 0 10 -262144 -1 -1;
#X connect 0 0 1 0;
#X connect 0 1 1 1;
#X connect 1 0 2 0;
#X connect 2 0 3 0;
#X connect 2 1 4 0;
#X connect 2 2 5 0;
#X connect 2 3 6 0;
#X restore 2 23 pd midiin-ch4;
#N canvas 1687 703 450 300 midiin-ch3 0;
#X obj 40 55 stripnote;
#X obj 40 30 notein 3;
#X floatatom 40 133 5 0 0 2 MIDI_noteon - MIDI_noteon_ch3, f 5;
#X obj 184 48 select 0;
#X obj 91 82 bng 15 250 50 0 noteON-Count empty noteON-Count 17 7 0
10 -262144 -1 -1;
#X floatatom 242 66 5 0 0 3 MIDI_Velovity - -, f 5;
#X obj 137 151 delay 10 1 msec;
#X obj 137 174 bng 15 250 50 0 pack_Entry_Mode_____with_____MIDE_note_value
empty trigger_pack_with_MIDI_note 17 7 0 10 -262144 -1 -1;
#X obj 184 95 bng 15 250 50 0 noteOFF-count empty noteOFF-count 17
7 0 10 -262144 -1 -1;
#X floatatom 137 128 5 0 0 1 MIDI_noteon_ch3 MIDI_noteon_ch3 -, f
5;
#X obj 49 197 outlet;
#X connect 0 0 2 0;
#X connect 0 1 4 0;
#X connect 1 0 0 0;
#X connect 1 1 0 1;
#X connect 1 1 3 0;
#X connect 3 0 8 0;
#X connect 3 1 5 0;
#X connect 6 0 7 0;
#X connect 9 0 6 0;
#X restore 2 2 pd midiin-ch3;
#N canvas 2106 603 450 300 pack-mode+note 0;
#X obj 165 203 route 0 1;
#X obj 165 178 pack;
#X floatatom 122 243 5 0 0 3 MIDI_note-to-chord - MIDI_note-to-chord
, f 5;
#X floatatom 238 249 5 0 0 1 MIDI_for_duration - MIDI_for_duration
, f 5;
#X obj 92 57 bng 15 250 50 0 empty pack_Entry_Mode_____with_____MIDE_note_value
NOTEON_to_Entry_Mode: -50 -15 0 10 -262144 -1 -1;
#X obj 165 105 int;
#X floatatom 165 137 5 0 0 1 Entry_Mode_of__last_note - -, f 5;
#X floatatom 208 88 5 0 0 1 Current_Mode Current_Entry_Mode -, f 5
;
#X floatatom 186 155 5 0 0 1 MIDI_noteon_ch3 MIDI_noteon_ch3 -, f
5;
#X connect 0 0 2 0;
#X connect 0 1 3 0;
#X connect 1 0 0 0;
#X connect 4 0 5 0;
#X connect 5 0 6 0;
#X connect 6 0 1 0;
#X connect 7 0 5 1;
#X connect 8 0 1 1;
#X restore 2 84 pd pack-mode+note;
#X floatatom 313 134 5 0 0 1 Current_Entry_Mode Current_Entry_Mode
-, f 5;
#N canvas 1603 545 450 265 chord/duration_switch 0;
#X obj 83 78 + 1;
#X floatatom 42 107 5 0 0 1 total_steps - -, f 5;
#X obj 16 10 bng 15 250 50 0 empty empty reset_total_steps 17 7 0 10
-262144 -1 -1;
#X floatatom 16 38 5 0 0 0 - - -, f 5;
#X obj 42 79 int 1;
#X obj 42 134 mod 2;
#X floatatom 42 154 5 0 0 1 Current_Entry_Mode_master - Current_Entry_Mode
, f 5;
#X obj 90 46 bng 15 250 50 0 empty switch_entry_mode_(0/1) from:counters/mv_WRITE_head
17 7 0 10 -262144 -1 -1;
#X connect 0 0 4 1;
#X connect 1 0 5 0;
#X connect 2 0 3 0;
#X connect 3 0 4 0;
#X connect 4 0 0 0;
#X connect 4 0 1 0;
#X connect 5 0 6 0;
#X connect 7 0 4 0;
#X restore 2 63 pd chord/duration_switch;
#N canvas 2253 640 450 300 midiMisc 0;
#X obj 66 29 pgmin;
#X floatatom 56 59 5 0 0 0 - - -, f 5;
#X floatatom 120 46 5 0 0 0 - - -, f 5;
#X obj 63 105 pgmout;
#X obj 181 118 + 4;
#X floatatom 181 141 5 0 0 0 - - -, f 5;
#X obj 283 22 ctlin;
#X floatatom 256 68 5 0 0 0 - - -, f 5;
#X floatatom 292 68 5 0 0 0 - - -, f 5;
#X floatatom 343 68 5 0 0 0 - - -, f 5;
#X obj 286 112 ctlout;
#X connect 0 0 1 0;
#X connect 0 1 2 0;
#X connect 1 0 3 0;
#X connect 2 0 4 0;
#X connect 4 0 3 1;
#X connect 4 0 5 0;
#X connect 6 0 7 0;
#X connect 6 1 8 0;
#X connect 6 2 9 0;
#X connect 7 0 10 0;
#X connect 8 0 10 1;
#X connect 9 0 10 2;
#X restore 2 43 pd midiMisc;
#X connect 3 0 2 0;
#X connect 4 0 3 0;
#X connect 8 0 9 0;
#X restore 111 2 pd midiIn;
#N canvas 803 691 794 386 exexetr 0;
#X obj 135 106 send ctrl_midi_velocity;
#X obj 64 47 bng 15 250 50 0 empty empty empty 17 7 0 10 -262144 -1
-1;
#X obj 135 72 int;
#X floatatom 206 45 5 0 0 0 - - -, f 5;
#X obj 332 38 ctlin 23 4;
#X obj 45 141 receive ctrl_midi_velocity;
#X floatatom 57 197 5 0 0 0 - - -, f 5;
#N canvas 1431 659 1818 404 toggle-bank 0;
#X obj 57 34 bng 15 250 50 0 empty empty empty 17 7 0 10 -262144 -1
-1;
#X obj 57 120 bng 15 250 50 0 empty empty empty 17 7 0 10 -262144 -1
-1;
#X msg 96 52 set \$1;
#X obj 80 34 tgl 15 0 empty empty empty 17 7 0 10 -262144 -1 -1 0 1
;
#X obj 75 120 tgl 15 0 empty empty empty 17 7 0 10 -262144 -1 -1 0
1;
#X obj 178 36 bng 15 250 50 0 empty empty empty 17 7 0 10 -262144 -1
-1;
#X obj 178 121 bng 15 250 50 0 empty empty empty 17 7 0 10 -262144
-1 -1;
#X msg 217 54 set \$1;
#X obj 201 36 tgl 15 0 empty empty empty 17 7 0 10 -262144 -1 -1 0
1;
#X obj 196 121 tgl 15 0 empty empty empty 17 7 0 10 -262144 -1 -1 0
1;
#X obj 178 74 s Dsharp_1_rcv_step1;
#X obj 178 95 r Dsharp_1_snd_step1;
#X obj 960 33 bng 15 250 50 0 empty empty empty 17 7 0 10 -262144 -1
-1;
#X obj 960 118 bng 15 250 50 0 empty empty empty 17 7 0 10 -262144
-1 -1;
#X msg 999 51 set \$1;
#X obj 983 33 tgl 15 0 empty empty empty 17 7 0 10 -262144 -1 -1 0
1;
#X obj 978 118 tgl 15 0 empty empty empty 17 7 0 10 -262144 -1 -1 0
1;
#X obj 427 32 bng 15 250 50 0 empty empty empty 17 7 0 10 -262144 -1
-1;
#X obj 427 117 bng 15 250 50 0 empty empty empty 17 7 0 10 -262144
-1 -1;
#X msg 466 50 set \$1;
#X obj 450 32 tgl 15 0 empty empty empty 17 7 0 10 -262144 -1 -1 0
1;
#X obj 445 117 tgl 15 0 empty empty empty 17 7 0 10 -262144 -1 -1 0
1;
#X obj 553 33 bng 15 250 50 0 empty empty empty 17 7 0 10 -262144 -1
-1;
#X obj 553 118 bng 15 250 50 0 empty empty empty 17 7 0 10 -262144
-1 -1;
#X msg 592 51 set \$1;
#X obj 576 33 tgl 15 0 empty empty empty 17 7 0 10 -262144 -1 -1 0
1;
#X obj 571 118 tgl 15 0 empty empty empty 17 7 0 10 -262144 -1 -1 0
1;
#X obj 679 33 bng 15 250 50 0 empty empty empty 17 7 0 10 -262144 -1
-1;
#X obj 679 118 bng 15 250 50 0 empty empty empty 17 7 0 10 -262144
-1 -1;
#X msg 718 51 set \$1;
#X obj 702 33 tgl 15 0 empty empty empty 17 7 0 10 -262144 -1 -1 0
1;
#X obj 697 118 tgl 15 0 empty empty empty 17 7 0 10 -262144 -1 -1 0
1;
#X obj 427 71 s Fsharp_1_rcv_step1;
#X obj 427 91 r Fsharp_1_snd_step1;
#X obj 553 71 s Gsharp_1_rcv_step1;
#X obj 553 92 r Gsharp_1_snd_step1;
#X obj 679 71 s Asharp_1_rcv_step1;
#X obj 679 92 r Asharp_1_snd_step1;
#X obj 1356 23 bng 15 250 50 0 empty empty empty 17 7 0 10 -262144
-1 -1;
#X obj 1356 108 bng 15 250 50 0 empty empty empty 17 7 0 10 -262144
-1 -1;
#X msg 1395 41 set \$1;
#X obj 1379 23 tgl 15 0 empty empty empty 17 7 0 10 -262144 -1 -1 0
1;
#X obj 1374 108 tgl 15 0 empty empty empty 17 7 0 10 -262144 -1 -1
0 1;
#X obj 1485 24 bng 15 250 50 0 empty empty empty 17 7 0 10 -262144
-1 -1;
#X obj 1485 109 bng 15 250 50 0 empty empty empty 17 7 0 10 -262144
-1 -1;
#X msg 1524 42 set \$1;
#X obj 1508 24 tgl 15 0 empty empty empty 17 7 0 10 -262144 -1 -1 0
1;
#X obj 1503 109 tgl 15 0 empty empty empty 17 7 0 10 -262144 -1 -1
0 1;
#X obj 1088 33 bng 15 250 50 0 empty empty empty 17 7 0 10 -262144
-1 -1;
#X obj 1088 118 bng 15 250 50 0 empty empty empty 17 7 0 10 -262144
-1 -1;
#X msg 1127 51 set \$1;
#X obj 1111 33 tgl 15 0 empty empty empty 17 7 0 10 -262144 -1 -1 0
1;
#X obj 1106 118 tgl 15 0 empty empty empty 17 7 0 10 -262144 -1 -1
0 1;
#X obj 1611 26 bng 15 250 50 0 empty empty empty 17 7 0 10 -262144
-1 -1;
#X obj 1611 111 bng 15 250 50 0 empty empty empty 17 7 0 10 -262144
-1 -1;
#X msg 1650 44 set \$1;
#X obj 1634 26 tgl 15 0 empty empty empty 17 7 0 10 -262144 -1 -1 0
1;
#X obj 1629 111 tgl 15 0 empty empty empty 17 7 0 10 -262144 -1 -1
0 1;
#X obj 960 71 s Csharp_2_rcv_step1;
#X obj 960 92 r Csharp_2_snd_step1;
#X obj 1088 71 s Dsharp_2_rcv_step1;
#X obj 1088 92 r Dsharp_2_snd_step1;
#X obj 1356 61 s Fsharp_2_rcv_step1;
#X obj 1356 82 r Fsharp_2_snd_step1;
#X obj 1485 62 s Gsharp_2_rcv_step1;
#X obj 1485 83 r Gsharp_2_snd_step1;
#X obj 1611 64 s Asharp_2_rcv_step1;
#X obj 1612 85 r Asharp_2_snd_step1;
#X obj 1278 196 bng 15 250 50 0 empty empty empty 17 7 0 10 -262144
-1 -1;
#X obj 1278 281 bng 15 250 50 0 empty empty empty 17 7 0 10 -262144
-1 -1;
#X msg 1317 214 set \$1;
#X obj 1301 196 tgl 15 0 empty empty empty 17 7 0 10 -262144 -1 -1
0 1;
#X obj 1296 281 tgl 15 0 empty empty empty 17 7 0 10 -262144 -1 -1
0 1;
#X obj 1423 198 bng 15 250 50 0 empty empty empty 17 7 0 10 -262144
-1 -1;
#X obj 1423 283 bng 15 250 50 0 empty empty empty 17 7 0 10 -262144
-1 -1;
#X msg 1462 216 set \$1;
#X obj 1446 198 tgl 15 0 empty empty empty 17 7 0 10 -262144 -1 -1
0 1;
#X obj 1441 283 tgl 15 0 empty empty empty 17 7 0 10 -262144 -1 -1
0 1;
#X obj 1561 194 bng 15 250 50 0 empty empty empty 17 7 0 10 -262144
-1 -1;
#X obj 1561 279 bng 15 250 50 0 empty empty empty 17 7 0 10 -262144
-1 -1;
#X msg 1600 212 set \$1;
#X obj 1584 194 tgl 15 0 empty empty empty 17 7 0 10 -262144 -1 -1
0 1;
#X obj 1579 279 tgl 15 0 empty empty empty 17 7 0 10 -262144 -1 -1
0 1;
#X obj 1278 234 s F_2_rcv_step1;
#X obj 1279 255 r F_2_snd_step1;
#X obj 1424 256 r G_2_snd_step1;
#X obj 1423 236 s G_2_rcv_step1;
#X obj 1561 232 s A_2_rcv_step1;
#X obj 1562 253 r A_2_snd_step1;
#X obj 4 198 bng 15 250 50 0 empty empty empty 17 7 0 10 -262144 -1
-1;
#X obj 4 283 bng 15 250 50 0 empty empty empty 17 7 0 10 -262144 -1
-1;
#X msg 43 216 set \$1;
#X obj 27 198 tgl 15 0 empty empty empty 17 7 0 10 -262144 -1 -1 0
1;
#X obj 22 283 tgl 15 0 empty empty empty 17 7 0 10 -262144 -1 -1 0
1;
#X obj 1707 191 bng 15 250 50 0 empty empty empty 17 7 0 10 -262144
-1 -1;
#X obj 1707 276 bng 15 250 50 0 empty empty empty 17 7 0 10 -262144
-1 -1;
#X msg 1746 209 set \$1;
#X obj 1730 191 tgl 15 0 empty empty empty 17 7 0 10 -262144 -1 -1
0 1;
#X obj 1725 276 tgl 15 0 empty empty empty 17 7 0 10 -262144 -1 -1
0 1;
#X obj 7 257 r C_1_snd_step1;
#X obj 6 235 s C_1_rcv_step1;
#X obj 123 199 bng 15 250 50 0 empty empty empty 17 7 0 10 -262144
-1 -1;
#X obj 123 284 bng 15 250 50 0 empty empty empty 17 7 0 10 -262144
-1 -1;
#X msg 162 217 set \$1;
#X obj 146 199 tgl 15 0 empty empty empty 17 7 0 10 -262144 -1 -1 0
1;
#X obj 141 284 tgl 15 0 empty empty empty 17 7 0 10 -262144 -1 -1 0
1;
#X obj 252 199 bng 15 250 50 0 empty empty empty 17 7 0 10 -262144
-1 -1;
#X obj 252 284 bng 15 250 50 0 empty empty empty 17 7 0 10 -262144
-1 -1;
#X msg 291 217 set \$1;
#X obj 275 199 tgl 15 0 empty empty empty 17 7 0 10 -262144 -1 -1 0
1;
#X obj 270 284 tgl 15 0 empty empty empty 17 7 0 10 -262144 -1 -1 0
1;
#X obj 486 193 bng 15 250 50 0 empty empty empty 17 7 0 10 -262144
-1 -1;
#X obj 486 278 bng 15 250 50 0 empty empty empty 17 7 0 10 -262144
-1 -1;
#X msg 525 211 set \$1;
#X obj 509 193 tgl 15 0 empty empty empty 17 7 0 10 -262144 -1 -1 0
1;
#X obj 504 278 tgl 15 0 empty empty empty 17 7 0 10 -262144 -1 -1 0
1;
#X obj 625 191 bng 15 250 50 0 empty empty empty 17 7 0 10 -262144
-1 -1;
#X obj 625 276 bng 15 250 50 0 empty empty empty 17 7 0 10 -262144
-1 -1;
#X msg 664 209 set \$1;
#X obj 648 191 tgl 15 0 empty empty empty 17 7 0 10 -262144 -1 -1 0
1;
#X obj 643 276 tgl 15 0 empty empty empty 17 7 0 10 -262144 -1 -1 0
1;
#X obj 781 192 bng 15 250 50 0 empty empty empty 17 7 0 10 -262144
-1 -1;
#X obj 781 277 bng 15 250 50 0 empty empty empty 17 7 0 10 -262144
-1 -1;
#X msg 820 210 set \$1;
#X obj 804 192 tgl 15 0 empty empty empty 17 7 0 10 -262144 -1 -1 0
1;
#X obj 799 277 tgl 15 0 empty empty empty 17 7 0 10 -262144 -1 -1 0
1;
#X obj 123 236 s D_1_rcv_step1;
#X obj 124 258 r D_1_snd_step1;
#X obj 252 236 s E_1_rcv_step1;
#X obj 253 258 r E_1_snd_step1;
#X obj 348 199 bng 15 250 50 0 empty empty empty 17 7 0 10 -262144
-1 -1;
#X obj 348 284 bng 15 250 50 0 empty empty empty 17 7 0 10 -262144
-1 -1;
#X msg 387 217 set \$1;
#X obj 371 199 tgl 15 0 empty empty empty 17 7 0 10 -262144 -1 -1 0
1;
#X obj 366 284 tgl 15 0 empty empty empty 17 7 0 10 -262144 -1 -1 0
1;
#X obj 348 236 s F_1_rcv_step1;
#X obj 349 258 r F_1_snd_step1;
#X obj 486 230 s G_1_rcv_step1;
#X obj 487 252 r G_1_snd_step1;
#X obj 624 227 s A_1_rcv_step1;
#X obj 626 250 r A_1_snd_step1;
#X obj 781 229 s B_1_rcv_step1;
#X obj 782 250 r B_1_snd_step1;
#X obj 875 193 bng 15 250 50 0 empty empty empty 17 7 0 10 -262144
-1 -1;
#X obj 875 278 bng 15 250 50 0 empty empty empty 17 7 0 10 -262144
-1 -1;
#X msg 914 211 set \$1;
#X obj 898 193 tgl 15 0 empty empty empty 17 7 0 10 -262144 -1 -1 0
1;
#X obj 893 278 tgl 15 0 empty empty empty 17 7 0 10 -262144 -1 -1 0
1;
#X obj 1033 198 bng 15 250 50 0 empty empty empty 17 7 0 10 -262144
-1 -1;
#X obj 1033 283 bng 15 250 50 0 empty empty empty 17 7 0 10 -262144
-1 -1;
#X msg 1072 216 set \$1;
#X obj 1056 198 tgl 15 0 empty empty empty 17 7 0 10 -262144 -1 -1
0 1;
#X obj 1051 283 tgl 15 0 empty empty empty 17 7 0 10 -262144 -1 -1
0 1;
#X obj 1182 197 bng 15 250 50 0 empty empty empty 17 7 0 10 -262144
-1 -1;
#X obj 1182 282 bng 15 250 50 0 empty empty empty 17 7 0 10 -262144
-1 -1;
#X msg 1221 215 set \$1;
#X obj 1205 197 tgl 15 0 empty empty empty 17 7 0 10 -262144 -1 -1
0 1;
#X obj 1200 282 tgl 15 0 empty empty empty 17 7 0 10 -262144 -1 -1
0 1;
#X obj 1803 189 bng 15 250 50 0 empty empty empty 17 7 0 10 -262144
-1 -1;
#X obj 1803 274 bng 15 250 50 0 empty empty empty 17 7 0 10 -262144
-1 -1;
#X msg 1842 207 set \$1;
#X obj 1826 189 tgl 15 0 empty empty empty 17 7 0 10 -262144 -1 -1
0 1;
#X obj 1821 274 tgl 15 0 empty empty empty 17 7 0 10 -262144 -1 -1
0 1;
#X obj 875 230 s C_2_rcv_step1;
#X obj 876 252 r C_2_snd_step1;
#X obj 1033 235 s D_2_rcv_step1;
#X obj 1034 257 r D_2_snd_step1;
#X obj 1182 234 s E_2_rcv_step1;
#X obj 1183 256 r E_2_snd_step1;
#X obj 1707 228 s B_2_rcv_step1;
#X obj 1708 250 r B_2_snd_step1;
#X obj 1804 248 r C_3_snd_step1;
#X obj 1803 226 s C_3_rcv_step1;
#X obj 57 96 r Csharp_1_snd_step1;
#X obj 57 74 s Csharp_1_rcv_step1;
#X connect 0 0 174 0;
#X connect 2 0 174 0;
#X connect 3 0 2 0;
#X connect 5 0 10 0;
#X connect 7 0 10 0;
#X connect 8 0 7 0;
#X connect 11 0 6 0;
#X connect 11 0 9 0;
#X connect 12 0 58 0;
#X connect 14 0 58 0;
#X connect 15 0 14 0;
#X connect 17 0 32 0;
#X connect 19 0 32 0;
#X connect 20 0 19 0;
#X connect 22 0 34 0;
#X connect 24 0 34 0;
#X connect 25 0 24 0;
#X connect 27 0 36 0;
#X connect 29 0 36 0;
#X connect 30 0 29 0;
#X connect 33 0 18 0;
#X connect 33 0 21 0;
#X connect 35 0 23 0;
#X connect 35 0 26 0;
#X connect 37 0 28 0;
#X connect 37 0 31 0;
#X connect 38 0 62 0;
#X connect 40 0 62 0;
#X connect 41 0 40 0;
#X connect 43 0 64 0;
#X connect 45 0 64 0;
#X connect 46 0 45 0;
#X connect 48 0 60 0;
#X connect 50 0 60 0;
#X connect 51 0 50 0;
#X connect 53 0 66 0;
#X connect 55 0 66 0;
#X connect 56 0 55 0;
#X connect 59 0 13 0;
#X connect 59 0 16 0;
#X connect 61 0 49 0;
#X connect 61 0 52 0;
#X connect 63 0 39 0;
#X connect 63 0 42 0;
#X connect 65 0 44 0;
#X connect 65 0 47 0;
#X connect 67 0 54 0;
#X connect 67 0 57 0;
#X connect 68 0 83 0;
#X connect 70 0 83 0;
#X connect 71 0 70 0;
#X connect 73 0 86 0;
#X connect 75 0 86 0;
#X connect 76 0 75 0;
#X connect 78 0 87 0;
#X connect 80 0 87 0;
#X connect 81 0 80 0;
#X connect 84 0 69 0;
#X connect 84 0 72 0;
#X connect 85 0 74 0;
#X connect 85 0 77 0;
#X connect 88 0 79 0;
#X connect 88 0 82 0;
#X connect 89 0 100 0;
#X connect 91 0 100 0;
#X connect 92 0 91 0;
#X connect 94 0 169 0;
#X connect 96 0 169 0;
#X connect 97 0 96 0;
#X connect 99 0 90 0;
#X connect 99 0 93 0;
#X connect 101 0 126 0;
#X connect 103 0 126 0;
#X connect 104 0 103 0;
#X connect 106 0 128 0;
#X connect 108 0 128 0;
#X connect 109 0 108 0;
#X connect 111 0 137 0;
#X connect 113 0 137 0;
#X connect 114 0 113 0;
#X connect 116 0 139 0;
#X connect 118 0 139 0;
#X connect 119 0 118 0;
#X connect 121 0 141 0;
#X connect 123 0 141 0;
#X connect 124 0 123 0;
#X connect 127 0 102 0;
#X connect 127 0 105 0;
#X connect 129 0 107 0;
#X connect 129 0 110 0;
#X connect 130 0 135 0;
#X connect 132 0 135 0;
#X connect 133 0 132 0;
#X connect 136 0 131 0;
#X connect 136 0 134 0;
#X connect 138 0 112 0;
#X connect 138 0 115 0;
#X connect 140 0 117 0;
#X connect 140 0 120 0;
#X connect 142 0 122 0;
#X connect 142 0 125 0;
#X connect 143 0 163 0;
#X connect 145 0 163 0;
#X connect 146 0 145 0;
#X connect 148 0 165 0;
#X connect 150 0 165 0;
#X connect 151 0 150 0;
#X connect 153 0 167 0;
#X connect 155 0 167 0;
#X connect 156 0 155 0;
#X connect 158 0 172 0;
#X connect 160 0 172 0;
#X connect 161 0 160 0;
#X connect 164 0 144 0;
#X connect 164 0 147 0;
#X connect 166 0 149 0;
#X connect 166 0 152 0;
#X connect 168 0 154 0;
#X connect 168 0 157 0;
#X connect 170 0 95 0;
#X connect 170 0 98 0;
#X connect 171 0 159 0;
#X connect 171 0 162 0;
#X connect 173 0 1 0;
#X connect 173 0 4 0;
#X restore 241 75 pd toggle-bank;
#X connect 1 0 2 0;
#X connect 2 0 0 0;
#X connect 3 0 2 0;
#X connect 4 0 3 0;
#X connect 5 0 6 0;
#X restore 249 2 pd exexetr;
#X floatatom 213 62 5 0 0 0 Velocity ctrl_midi_velocity -, f 5;
#X connect 3 0 14 0;
#X connect 14 0 2 0;
